<svg width="339" height="337" viewBox="0 0 339 337" fill="none" xmlns="http://www.w3.org/2000/svg">
<path opacity="0.1" d="M269.744 336.046C302.652 336.046 329.329 332.051 329.329 327.123C329.329 322.194 302.652 318.199 269.744 318.199C236.836 318.199 210.159 322.194 210.159 327.123C210.159 332.051 236.836 336.046 269.744 336.046Z" fill="#78D2CF"/>
<path d="M338.343 91.1665C338.328 91.1098 338.296 91.0584 338.251 91.0182C337.34 90.18 325.721 74.859 325.721 74.859C325.721 74.859 325.11 73.1485 324.119 70.9247C324.437 70.5414 324.675 70.1063 324.822 69.6418C324.876 69.445 324.915 69.2449 324.939 69.0431C324.939 68.9804 324.988 68.9291 325.006 68.8663C325.218 68.093 325.197 67.2799 324.945 66.5171C324.877 66.7128 324.793 66.9035 324.694 67.0873C324.464 66.4231 324.156 65.7845 323.777 65.1829C322.236 62.7083 320.034 60.6214 318.414 58.2095C315.96 54.462 314.985 50.034 315.656 45.6881C315.656 45.9105 315.656 46.1385 315.656 46.3609C315.717 45.499 315.84 44.6418 316.023 43.7951C316.278 42.8312 316.62 41.889 317.044 40.9783C318.499 37.8708 320.854 35.1624 322.285 32.0434C322.765 30.9914 323.13 29.8968 323.373 28.7763C323.877 26.9048 324.061 24.9708 323.917 23.0458C323.917 23.502 323.838 23.9582 323.765 24.4086C323.61 19.7805 321.605 15.3734 318.145 12.0526C313.149 7.37131 305.976 5.55241 299.115 4.59449C296.232 4.28081 293.478 3.30086 291.104 1.74354C288.468 0.152711 285.062 -0.22932 281.98 0.118496C278.438 0.475594 275.147 1.99298 272.692 4.40063C269.432 7.74194 268.02 12.4745 264.216 15.2912C261.911 17.0018 258.988 17.8001 256.303 18.9633C253.619 20.1265 251.081 21.8142 250.219 24.3117C250.219 24.3117 250.219 24.2775 250.219 24.2603V24.4029L250.182 24.4941C249.289 27.4477 251.014 30.4526 251.913 33.4005C252.848 36.451 252.909 39.6726 252.958 42.8257C253.026 46.6802 253.087 50.5404 253.019 54.4006C252.989 55.9173 252.934 57.4511 252.812 58.9621C251.364 59.3701 249.958 59.8968 248.611 60.5358C247.241 61.3683 242.116 66.5285 242.116 66.5285L232.094 102.234L232.228 102.376L232.094 102.861L232.601 102.753C234.02 104.178 238.258 108.238 242.832 110.77L243.26 117.772C243.26 117.772 243.774 124.796 250.702 127.699C250.861 130.133 251.356 140.02 249.063 143.938C247.475 146.799 246.728 150.002 246.898 153.22C246.898 153.22 247.699 159.162 246.788 162.286C246.256 164.375 246.216 166.546 246.672 168.65V168.65C246.672 168.65 246.672 169.34 246.672 170.526C246.672 176.849 246.752 197.114 246.672 199.406C246.556 202.114 246.672 242.17 246.672 242.17C246.672 242.17 246.103 262.189 244.281 267.612C242.459 273.034 242.917 290.99 242.917 290.99C242.917 290.99 241.774 312.377 245.816 316.597C245.816 316.785 245.779 316.979 245.773 317.167C245.773 317.253 245.773 317.35 245.773 317.435C245.724 319.06 246.061 320.788 247.559 321.318C250.616 322.413 254.658 325.697 255.423 326.638C256.187 327.579 260.633 329.922 266.43 329.295C270.061 328.914 273.716 328.758 277.37 328.827V328.827C277.37 328.827 279.657 328.44 278.917 325.788C278.44 324.135 276.654 321.592 275.382 319.921C275.615 319.978 275.841 320.024 276.055 320.064L276.275 320.104H276.446C276.54 320.109 276.634 320.109 276.728 320.104H276.85C276.964 320.112 277.078 320.112 277.192 320.104V320.104C278.727 319.967 284.451 322.453 285.472 324.095C286.493 325.737 290.095 326.986 292.81 327.299C294.425 327.482 298.497 327.174 301.915 326.763C303.637 326.598 305.342 326.308 307.015 325.897C307.823 325.612 307.994 324.699 307.761 323.673C307.487 322.369 306.74 321.194 305.646 320.343C304.655 319.687 303.346 317.96 302.38 316.546L302.123 316.164C303.829 314.647 306.911 309.686 307.847 308.66C308.984 307.411 306.013 261.745 306.013 261.745V238.851L310.568 217.184L313.754 205.718L316.488 188.407C316.488 188.407 321.27 168.188 319.796 166.203C319.796 166.164 318.573 145.346 317.289 140.345C316.732 138.116 316.873 133.098 317.203 128.217C317.548 127.898 317.789 127.493 317.897 127.051C318.005 126.609 317.977 126.148 317.815 125.72C317.723 125.428 317.605 125.143 317.46 124.87C317.46 124.785 317.46 124.694 317.46 124.608C320.102 123.475 322.862 122.6 325.697 121.997C330.253 121.164 329.115 118.975 329.115 118.975C329.115 118.975 330.143 117.099 330.821 115.953C331.5 114.807 330.937 104.691 330.821 103.859C330.779 103.522 330.497 101.664 330.173 99.554C331.635 98.5846 333.536 97.3815 335.609 96.2412C339.554 94.063 338.667 91.7652 338.343 91.1665ZM278.904 235.727C278.904 235.727 275.486 243.858 276.856 245.939C278.226 248.02 276.63 255.746 276.63 255.746L275.486 267.213C275.486 267.213 272.3 288.481 273.438 293.481C274.33 297.404 274.661 309.122 274.765 314.008C274.686 314.037 274.611 314.071 274.538 314.111L274.385 314.185C274.911 312.263 274.691 308.375 272.08 300.552L271.86 268.239C271.86 268.239 271.456 230.914 274.618 226.741C277.779 222.567 278.898 215.479 278.898 215.479C278.898 215.479 278.214 225.703 277.767 228.411C277.321 231.12 278.904 235.727 278.904 235.727ZM272.539 316.044C272.508 316.112 272.471 316.181 272.447 316.243L272.276 316.038C272.363 316.046 272.451 316.048 272.539 316.044V316.044Z" fill="url(#paint0_linear_197_214)"/>
<path d="M307.401 328.85C305.633 329.483 296.051 330.561 293.373 330.259C290.694 329.956 287.148 328.691 286.139 327.037C285.13 325.383 279.473 322.886 277.957 323.046C277.335 323.063 276.715 322.982 276.122 322.806C275.076 322.511 274.054 322.145 273.065 321.711C272.926 320.993 272.949 320.255 273.132 319.545C273.167 319.402 273.212 319.261 273.266 319.123C273.623 318.187 274.362 317.421 275.321 316.99L275.541 316.893C275.965 316.723 276.408 316.596 276.862 316.517C281.668 315.656 301.5 317.384 301.5 317.384C301.5 317.384 302.056 318.313 302.82 319.465C303.774 320.89 305.071 322.629 306.049 323.285C307.133 324.149 307.869 325.332 308.134 326.638C308.367 327.647 308.196 328.571 307.401 328.85Z" fill="white"/>
<path opacity="0.1" d="M307.401 328.85C305.633 329.483 296.057 330.561 293.379 330.259C290.7 329.956 287.154 328.685 286.139 327.037C285.124 325.389 279.479 322.886 277.963 323.046C276.446 323.205 273.071 321.711 273.071 321.711C273.071 321.711 272.545 319.431 274.074 317.874L277.131 319.898C277.131 319.898 285.313 322.265 286.83 324.46C288.346 326.655 291.11 327.881 295.103 328.103C298.087 328.286 304.942 327.202 308.153 326.661C308.367 327.647 308.202 328.571 307.401 328.85Z" fill="black"/>
<path d="M278.128 331.758C274.521 331.693 270.913 331.851 267.329 332.231C261.587 332.859 257.202 330.521 256.438 329.557C255.674 328.594 251.717 325.338 248.678 324.197C247.192 323.661 246.843 321.917 246.911 320.286C246.911 320.2 246.911 320.104 246.911 320.018C246.967 318.985 247.131 317.96 247.4 316.956L271.194 316.483L273.254 319.089L273.572 319.488L274.826 321.079C274.826 321.079 275.395 321.774 276.141 322.789C277.4 324.5 279.161 327.026 279.632 328.696C280.384 331.37 278.128 331.758 278.128 331.758Z" fill="white"/>
<path opacity="0.1" d="M278.128 331.758C274.521 331.693 270.913 331.851 267.329 332.231C261.593 332.859 257.202 330.521 256.444 329.557C255.686 328.594 251.717 325.309 248.678 324.209C247.192 323.673 246.843 321.928 246.911 320.297C248.611 320.668 252.182 321.615 253.582 323.262C255.417 325.463 258.7 329.164 263.366 329.398C267.133 329.586 276.306 328.959 279.669 328.708C280.391 331.37 278.128 331.758 278.128 331.758Z" fill="black"/>
<path opacity="0.1" d="M275.297 316.967C275.021 318.872 274.171 319.385 273.56 319.499C273.41 319.526 273.257 319.526 273.107 319.499C273.027 319.494 272.947 319.482 272.869 319.465C272.869 319.465 251.503 323.867 247.186 320.303C247.076 320.211 246.974 320.112 246.88 320.007C246.936 318.974 247.1 317.948 247.369 316.945L271.163 316.471L273.224 319.077C273.58 318.142 274.319 317.375 275.278 316.945L275.297 316.967Z" fill="black"/>
<path opacity="0.1" d="M302.815 319.442C302.338 319.932 301.94 320.212 301.69 320.115C300.564 319.693 291.343 318.228 288.414 319.488C285.485 320.748 275.572 319.693 275.572 319.693C275.572 319.693 275.572 318.598 275.517 316.842C275.941 316.671 276.384 316.545 276.838 316.466C281.644 315.605 301.475 317.332 301.475 317.332C301.475 317.332 302.056 318.29 302.815 319.442Z" fill="black"/>
<path d="M316.769 190.465L314.066 207.879L310.923 219.419L306.422 241.235V264.327C306.422 264.327 309.345 310.273 308.22 311.528C307.095 312.782 302.821 319.927 301.695 319.51C300.57 319.094 291.349 317.623 288.42 318.878C285.491 320.132 275.578 319.088 275.578 319.088C275.578 319.088 275.352 301.259 274.227 296.224C273.101 291.189 276.251 269.79 276.251 269.79L277.376 258.255C277.376 258.255 278.954 250.489 277.602 248.391C276.251 246.292 279.626 238.127 279.626 238.127C279.626 238.127 278.055 233.503 278.507 230.777C278.96 228.052 279.626 217.771 279.626 217.771C279.626 217.771 278.507 224.91 275.382 229.101C272.258 233.292 272.655 270.85 272.655 270.85L272.875 303.351C278.507 320.56 272.875 318.878 272.875 318.878C272.875 318.878 251.509 323.285 247.192 319.716C242.875 316.146 244.11 293.681 244.11 293.681C244.11 293.681 243.664 275.64 245.461 270.189C247.259 264.738 247.828 244.593 247.828 244.593C247.828 244.593 247.712 204.309 247.828 201.589C247.913 199.309 247.828 178.89 247.828 172.51C247.828 171.324 247.828 170.622 247.828 170.622L250.408 164.647L280.984 161.077H295.611C295.611 161.077 317.625 165.901 319.9 167.982C319.949 168.017 319.99 168.06 320.022 168.108C321.496 170.121 316.769 190.465 316.769 190.465Z" fill="#78D2CF"/>
<path opacity="0.1" d="M279.645 281.935C279.645 281.935 286.371 297.039 289.545 298.088C292.719 299.138 279.645 281.935 279.645 281.935Z" fill="black"/>
<path opacity="0.1" d="M282.133 304.172C282.133 304.172 304.845 305.222 304.618 307.531C304.392 309.84 282.133 304.172 282.133 304.172Z" fill="black"/>
<path opacity="0.1" d="M251.748 298.134C252.646 298.927 269.072 300.415 267.72 301.863C266.369 303.311 253.099 306.128 253.099 306.128L251.748 298.134Z" fill="black"/>
<path opacity="0.1" d="M249.051 272.076C249.051 272.704 252.426 292.216 253.331 293.054C254.236 293.892 261.654 294.73 261.654 294.73L249.051 272.076Z" fill="black"/>
<path d="M273.542 5.37565C270.319 8.73406 268.925 13.4952 265.17 16.3347C262.889 18.0453 260.003 18.8606 257.349 20.0238C254.695 21.187 252.065 22.9603 251.277 25.5946C250.396 28.5596 252.096 31.5873 252.989 34.5523C253.912 37.6199 253.967 40.8244 254.022 44.0345C254.083 47.9175 254.151 51.8005 254.077 55.6835C253.967 61.7332 253.429 68.0623 249.986 73.1884C262.418 76.8775 275.639 77.3792 288.676 77.8525C291.182 78.0192 293.699 77.96 296.192 77.6757C298.352 77.2743 300.489 76.77 302.594 76.1647C306.756 75.1379 311.045 74.6261 315.35 74.6423C317.228 74.6423 319.142 74.7507 320.952 74.2945C322.762 73.8384 324.504 72.6695 324.994 70.9817C325.428 69.465 324.792 67.8514 323.96 66.4886C322.444 64.0026 320.291 61.9271 318.665 59.4753C317.004 56.8855 316.019 53.9683 315.788 50.9586C315.558 47.9489 316.089 44.9307 317.338 42.1472C318.781 39.0169 321.104 36.2914 322.523 33.1553C323.976 29.7882 324.363 26.103 323.636 22.5373C322.91 18.9715 321.102 15.675 318.426 13.039C313.491 8.32923 306.41 6.50462 299.634 5.5353C296.782 5.22108 294.06 4.24048 291.722 2.68435C289.123 1.08781 285.753 0.700076 282.708 1.05359C279.195 1.42066 275.941 2.95492 273.542 5.37565Z" fill="#3F3D56"/>
<g opacity="0.1">
<path opacity="0.1" d="M317.527 38.8572C316.28 41.6048 315.746 44.5878 315.968 47.564C316.105 45.4357 316.632 43.3451 317.527 41.3831C318.964 38.2528 321.288 35.5273 322.707 32.3912C323.866 29.7726 324.354 26.9376 324.131 24.1121C324.005 26.0925 323.524 28.0392 322.707 29.871C321.288 33.007 318.964 35.7268 317.527 38.8572Z" fill="black"/>
<path opacity="0.1" d="M254.206 43.2591C254.243 45.4943 254.279 47.7351 254.285 49.9702C254.285 46.8912 254.255 43.8179 254.206 40.7446C254.157 37.5572 254.096 34.3299 253.173 31.2566C252.561 29.3066 251.656 27.328 251.338 25.3608C250.794 28.1548 252.341 30.9886 253.173 33.7769C254.096 36.8217 254.157 40.0718 254.206 43.2591Z" fill="black"/>
<path opacity="0.1" d="M321.159 71.033C319.325 71.4948 317.441 71.3922 315.564 71.3808C311.262 71.3553 306.976 71.8576 302.814 72.8747C300.709 73.4774 298.572 73.9798 296.412 74.38C293.917 74.6689 291.398 74.73 288.89 74.5624C276.293 74.1006 263.519 73.6045 251.454 70.2461C251.096 70.9917 250.687 71.7154 250.231 72.4128C262.663 76.0963 275.884 76.6037 288.915 77.077C291.422 77.2445 293.941 77.1834 296.436 76.8945C298.589 76.4982 300.718 75.9976 302.814 75.3949C306.967 74.374 311.245 73.866 315.54 73.8839C317.417 73.8839 319.325 73.9923 321.135 73.5304C322.945 73.0685 324.688 71.9111 325.177 70.2233C325.383 69.4416 325.362 68.6229 325.116 67.8513C324.572 69.4478 322.89 70.5597 321.159 71.033Z" fill="black"/>
</g>
<path d="M303.047 64.2763C302.594 65.2228 300.686 73.3993 300.234 74.2375C299.781 75.0757 297.311 88.4923 297.085 89.2449C296.858 89.9976 280.8 86.0975 280.8 86.0975L271.132 78.5425L261.195 69.3225C261.195 69.3225 260.902 61.0034 268.222 58.3349C268.719 58.1528 269.23 58.0041 269.75 57.8902C278.629 55.9002 277.737 30.7263 277.737 30.7263L295.96 38.0647C295.96 38.0647 292.584 52.7528 292.7 55.5866C292.731 56.5388 293.532 57.1318 294.578 57.491C296.194 57.9199 297.877 58.0896 299.555 57.9928C299.555 57.9928 303.499 63.3355 303.047 64.2763Z" fill="#FBBEBE"/>
<path d="M335.671 91.8621L338.257 92.495C338.257 92.495 340.171 95.2091 335.671 97.7351C332.813 99.3537 330.07 101.142 327.458 103.089L314.158 106.864L311.596 99.3658L323.973 90.6077L335.671 91.8621Z" fill="#78D2CF"/>
<path opacity="0.1" d="M335.671 91.8621L338.257 92.495C338.257 92.495 340.171 95.2091 335.671 97.7351C332.813 99.3537 330.07 101.142 327.458 103.089L314.158 106.864L311.596 99.3658L323.973 90.6077L335.671 91.8621Z" fill="black"/>
<path d="M238.606 99.1035L233.433 103.825C233.433 103.825 242.765 113.894 249.944 114.521C257.123 115.149 261.752 106.864 261.752 106.864L255.539 97.7407L238.606 99.1035Z" fill="#78D2CF"/>
<path opacity="0.1" d="M238.606 99.1035L233.433 103.825C233.433 103.825 242.765 113.894 249.944 114.521C257.123 115.149 261.752 106.864 261.752 106.864L255.539 97.7407L238.606 99.1035Z" fill="black"/>
<path opacity="0.1" d="M287.747 47.1763C297.686 47.1763 305.744 39.6633 305.744 30.3956C305.744 21.1279 297.686 13.6149 287.747 13.6149C277.808 13.6149 269.75 21.1279 269.75 30.3956C269.75 39.6633 277.808 47.1763 287.747 47.1763Z" fill="black"/>
<path d="M287.747 45.9162C297.686 45.9162 305.744 38.4032 305.744 29.1354C305.744 19.8677 297.686 12.3547 287.747 12.3547C277.808 12.3547 269.75 19.8677 269.75 29.1354C269.75 38.4032 277.808 45.9162 287.747 45.9162Z" fill="#FBBEBE"/>
<path opacity="0.1" d="M320.034 170.012C315.937 170.45 311.9 171.292 307.994 172.527C301.267 174.614 248.556 172.561 247.822 172.527C247.822 171.341 247.822 170.639 247.822 170.639L250.402 164.664L280.978 161.094H295.605C295.605 161.094 317.619 165.918 319.894 167.999C319.986 169.254 320.034 170.012 320.034 170.012Z" fill="black"/>
<path opacity="0.1" d="M303.047 64.2762C302.594 65.2227 300.686 73.3993 300.234 74.2374C299.781 75.0756 297.311 88.4922 297.085 89.2449C296.858 89.9975 280.8 86.0974 280.8 86.0974L271.132 78.5424L261.195 69.3224C261.195 69.3224 260.902 61.0033 268.222 58.3349L286.396 77.8182L294.578 57.491C296.194 57.9199 297.877 58.0895 299.555 57.9927C299.555 57.9927 303.499 63.3354 303.047 64.2762Z" fill="black"/>
<path d="M286.396 78.4455L267.794 58.4889C266.705 57.8408 265.46 57.4551 264.172 57.3665C262.884 57.2779 261.592 57.4892 260.413 57.9814C256.249 59.6635 251.075 61.0262 249.724 61.8644C248.372 62.7026 243.309 67.8913 243.309 67.8913L258.389 104.674L251.748 128.902C251.748 128.902 252.763 141.28 250.176 145.791C248.601 148.674 247.863 151.892 248.036 155.125C248.036 155.125 248.825 161.106 247.926 164.248C247.401 166.348 247.361 168.529 247.81 170.645C247.81 170.645 301.249 172.744 307.994 170.645C311.9 169.407 315.936 168.564 320.035 168.131C320.035 168.131 318.812 147.148 317.589 142.113C316.366 137.078 318.604 117.886 318.604 117.886L317.142 97.3245L325.911 76.2275C325.911 76.2275 321.16 62.7026 316.207 61.3398C316.207 61.3398 307.211 59.3442 305.297 58.4034C303.383 57.4625 297.758 56.6187 297.758 56.6187L294.804 57.5424L286.396 78.4455Z" fill="#78D2CF"/>
<path opacity="0.1" d="M312.349 96.6303L273.205 94.1484C272.215 94.0856 271.357 94.7835 271.29 95.7072L267.087 153.334C267.02 154.258 267.768 155.058 268.759 155.121L307.903 157.602C308.893 157.665 309.751 156.967 309.818 156.044L314.021 98.4165C314.088 97.4928 313.34 96.6931 312.349 96.6303Z" fill="black"/>
<path d="M313.697 95.3787L274.553 92.8968C273.563 92.834 272.705 93.5319 272.638 94.4556L268.435 152.083C268.368 153.006 269.116 153.806 270.107 153.869L309.251 156.351C310.242 156.414 311.099 155.716 311.167 154.792L315.369 97.1649C315.436 96.2412 314.688 95.4415 313.697 95.3787Z" fill="#3F3D56"/>
<path d="M312.405 99.8958L275.177 97.5354L271.351 149.997L308.58 152.358L312.405 99.8958Z" fill="white"/>
<path opacity="0.1" d="M309.067 113.286L278.657 111.302L278.064 119.204L308.474 121.189L309.067 113.286Z" fill="black"/>
<path opacity="0.1" d="M307.967 144.692L303.141 144.386L302.841 148.505L307.667 148.811L307.967 144.692Z" fill="black"/>
<path opacity="0.1" d="M303.207 134.752L278.504 133.186L278.204 137.304L302.906 138.87L303.207 134.752Z" fill="black"/>
<path d="M307.798 97.9343L282.076 96.3035L281.614 102.635L307.336 104.266L307.798 97.9343Z" fill="#3F3D56"/>
<path opacity="0.1" d="M307.798 97.9343L282.076 96.3035L281.614 102.635L307.336 104.266L307.798 97.9343Z" fill="black"/>
<path opacity="0.1" d="M288.646 168.855C288.646 168.855 288.42 199.907 279.645 217.737C279.645 217.737 290.224 194.24 290.224 193.299C290.224 192.358 296.07 182.494 294.504 179.557C292.939 176.621 288.646 168.855 288.646 168.855Z" fill="black"/>
<path opacity="0.1" d="M289.123 24.9389C288.787 22.1905 289.508 19.42 291.159 17.1216C290.963 19.4253 291.661 21.7181 293.128 23.5814C294.594 25.4447 296.73 26.7542 299.145 27.271C298.939 27.1042 298.792 26.883 298.723 26.6367C298.654 26.3904 298.667 26.1305 298.76 25.8911C300.014 27.214 300.974 28.782 302.392 29.9452C303.811 31.1084 305.939 31.804 307.609 30.9772C309.877 29.8368 309.902 26.8319 309.315 24.4942C308.055 19.5155 305.47 14.9131 301.799 11.1118C300.883 9.96273 299.695 9.02706 298.326 8.37811C296.957 7.72916 295.446 7.38457 293.911 7.37133C290.437 7.12045 286.83 7.40553 283.717 8.85952C281.965 9.75073 280.325 10.8197 278.825 12.0469L270.264 18.5585C269.44 19.1118 268.735 19.8042 268.185 20.5997C267.817 21.2648 267.597 21.9919 267.537 22.738C267.318 24.8705 267.741 27.0177 268.759 28.9385C269.776 30.8592 271.348 32.4775 273.297 33.6115C273.256 31.926 273.753 30.2671 274.725 28.8457C275.698 27.4243 277.101 26.3046 278.758 25.6288C279.017 25.8311 279.227 26.0828 279.374 26.367C279.52 26.6512 279.6 26.9614 279.608 27.2767L281.412 24.2775C281.68 23.7317 282.103 23.2645 282.635 22.9261C283.748 22.3559 285.136 23.0288 286.084 23.8327C287.031 24.6367 287.955 25.6402 289.227 25.7657L289.276 21.3011" fill="black"/>
<path d="M289.123 24.3116C288.786 21.5613 289.508 18.7888 291.159 16.4886C290.609 21.0501 294.296 25.7599 299.152 26.638C298.945 26.4726 298.798 26.2524 298.729 26.0069C298.66 25.7615 298.673 25.5022 298.766 25.2638C300.02 26.5867 300.98 28.149 302.399 29.3179C303.817 30.4868 305.945 31.1767 307.615 30.3442C309.884 29.2038 309.908 26.1989 309.321 23.8669C308.061 18.8882 305.477 14.2858 301.806 10.4845C300.667 9.18985 299.231 8.14946 297.605 7.43968C296.427 7.03358 295.19 6.79895 293.936 6.74404C290.462 6.49316 286.854 6.77256 283.742 8.22654C281.991 9.12174 280.351 10.1924 278.85 11.4196L270.289 17.9312C269.464 18.4831 268.758 19.1757 268.209 19.9725C267.841 20.6373 267.621 21.3645 267.561 22.1107C267.343 24.2424 267.766 26.3886 268.784 28.3084C269.802 30.2282 271.373 31.8454 273.322 32.9785C273.282 31.2933 273.78 29.6351 274.752 28.214C275.724 26.7929 277.127 25.6728 278.782 24.9958C279.041 25.1989 279.25 25.4507 279.397 25.7348C279.543 26.0188 279.624 26.3286 279.632 26.6437L281.43 23.6559C281.697 23.1092 282.12 22.6416 282.653 22.3045C283.766 21.7343 285.154 22.4072 286.102 23.2111C287.05 24.0151 287.973 25.0129 289.245 25.1441L289.294 20.6738" fill="#3F3D56"/>
<path d="M297.647 130.156C296.076 129.415 270.087 133.195 270.087 133.195C270.087 133.195 265.806 132.055 255.46 130.47C245.113 128.885 244.453 119.454 244.453 119.454L243.321 100.575L246.813 97.7236L261.77 106.847C261.77 106.847 262.003 111.46 261.77 112.292C261.624 112.862 261.232 113.541 261.269 114.003C261.28 114.128 261.336 114.246 261.426 114.339C261.517 114.431 261.638 114.494 261.77 114.516C262.786 114.755 276.618 116.842 276.618 116.842C276.618 116.842 308.679 114.795 316.671 124.865C317.305 125.604 317.784 126.447 318.084 127.351C320.065 134.233 299.072 130.812 297.647 130.156Z" fill="#FBBEBE"/>
<path opacity="0.1" d="M318.102 127.391C316.879 127.898 316.121 128.263 316.121 128.263C316.121 128.263 304.649 127.949 298.204 125.771C291.758 123.593 283.925 123.981 283.925 123.981C283.925 123.981 257.068 119.67 261.232 114.042C261.243 114.168 261.299 114.286 261.389 114.378C261.48 114.471 261.601 114.534 261.734 114.556C262.749 114.795 276.581 116.882 276.581 116.882C276.581 116.882 308.642 114.835 316.635 124.905C317.287 125.64 317.785 126.483 318.102 127.391V127.391Z" fill="black"/>
<path d="M329.256 94.1714C329.256 94.1714 330.834 104.555 330.944 105.398C331.054 106.242 331.622 116.409 330.944 117.566C330.265 118.724 329.256 120.605 329.256 120.605C329.256 120.605 330.381 122.806 325.88 123.65C321.38 124.494 316.096 127.003 316.096 127.003C316.096 127.003 304.618 126.689 298.21 124.488C291.801 122.287 283.925 122.704 283.925 122.704C283.925 122.704 249.834 117.247 264.461 110.587C279.088 103.927 289.435 112.948 289.435 112.948L305.744 112.007C305.744 112.007 311.822 108.54 313.51 108.859C314.701 109.001 315.912 108.819 316.995 108.335L317.111 97.3188L329.256 94.1714Z" fill="#FBBEBE"/>
<path opacity="0.1" d="M246.556 68.6838L243.291 68.5242L233.396 104.446C233.396 104.446 244.079 101.926 248.684 104.446C253.289 106.966 261.734 107.485 261.734 107.485L258.584 78.8503L246.556 68.6838Z" fill="black"/>
<path d="M246.556 68.0509L243.291 67.8912L233.396 103.813C233.396 103.813 244.079 101.293 248.684 103.813C253.289 106.333 261.734 106.852 261.734 106.852L258.584 78.2174L246.556 68.0509Z" fill="#78D2CF"/>
<path opacity="0.1" d="M321.386 75.9196L325.881 76.8661C325.881 76.8661 337.359 92.2612 338.258 93.1222C339.157 93.9832 333.977 97.1135 331.843 97.1135C329.709 97.1135 319.246 98.2539 316.207 100.888C313.167 103.522 314.433 90.2655 314.433 89.9633C314.433 89.6611 318.206 81.2964 318.206 81.2964L321.386 75.9196Z" fill="black"/>
<path d="M321.386 75.2924L325.881 76.2332C325.881 76.2332 337.359 91.6568 338.258 92.495C339.157 93.3332 333.977 96.4863 331.843 96.4863C329.709 96.4863 319.246 97.6267 316.207 100.261C313.167 102.895 314.433 89.6383 314.433 89.3361C314.433 89.0339 318.231 80.6407 318.231 80.6407L321.386 75.2924Z" fill="#78D2CF"/>
<g opacity="0.1">
<path opacity="0.1" d="M291.129 16.5399C291.102 16.1027 291.112 15.6643 291.159 15.2285C290.228 16.5312 289.588 17.9952 289.276 19.5334V20.8563C289.276 20.8563 289.276 20.8278 289.276 20.8107V21.1243C289.276 22.048 289.276 22.9774 289.245 23.9011H289.16V24.3288C289.16 24.1805 289.16 24.038 289.129 23.8897C287.906 23.7072 287.031 22.7493 286.12 21.9853C285.209 21.2212 283.784 20.4914 282.671 21.0787C282.138 21.4157 281.715 21.8833 281.448 22.43L279.632 25.4178C279.624 25.1034 279.544 24.7943 279.398 24.511C279.251 24.2278 279.041 23.9771 278.782 23.7757C277.126 24.4514 275.722 25.5712 274.75 26.9926C273.777 28.414 273.28 30.0728 273.322 31.7583C271.651 30.7822 270.253 29.4494 269.244 27.87C268.235 26.2906 267.643 24.5099 267.518 22.6752C267.412 24.7239 267.894 26.7619 268.914 28.579C269.934 30.3962 271.456 31.9267 273.322 33.0128C273.282 31.3276 273.78 29.6693 274.752 28.2482C275.724 26.8271 277.127 25.7071 278.782 25.0301C279.041 25.2331 279.25 25.485 279.397 25.769C279.543 26.0531 279.624 26.3628 279.632 26.6779L281.43 23.6901C281.697 23.1434 282.12 22.6759 282.653 22.3388C283.766 21.7686 285.154 22.4414 286.102 23.2454C287.05 24.0494 287.973 25.0472 289.245 25.1783C289.245 23.7186 289.261 22.2628 289.294 20.8107C289.594 19.2873 290.218 17.8352 291.129 16.5399V16.5399Z" fill="black"/>
<path opacity="0.1" d="M289.062 22.2817C289.092 21.894 289.141 21.5063 289.203 21.1413L289.27 19.5676C289.086 20.4615 289.016 21.3725 289.062 22.2817Z" fill="black"/>
<path opacity="0.1" d="M307.615 29.0842C305.945 29.9167 303.817 29.221 302.399 28.0578C300.98 26.8947 300.02 25.3266 298.766 24.0038C298.674 24.2432 298.661 24.5031 298.73 24.7494C298.798 24.9957 298.946 25.2168 299.152 25.3837C299.029 25.3837 298.913 25.3266 298.797 25.2981C300.02 26.6096 300.992 28.1491 302.399 29.2895C303.805 30.4298 305.945 31.1483 307.615 30.3158C309.284 29.4833 309.761 27.5333 309.615 25.6345C309.504 27.1284 308.93 28.4228 307.615 29.0842Z" fill="black"/>
<path opacity="0.1" d="M298.76 25.2867C296.715 24.7671 294.89 23.677 293.528 22.1626C292.166 20.6482 291.333 18.7819 291.141 16.8137C290.792 21.2897 294.412 25.7771 299.152 26.6381C298.95 26.4746 298.805 26.2587 298.735 26.018C298.665 25.7774 298.674 25.5227 298.76 25.2867V25.2867Z" fill="black"/>
</g>
<path opacity="0.1" d="M81.8654 331.291C114.773 331.291 141.45 327.295 141.45 322.367C141.45 317.439 114.773 313.444 81.8654 313.444C48.9574 313.444 22.2803 317.439 22.2803 322.367C22.2803 327.295 48.9574 331.291 81.8654 331.291Z" fill="#78D2CF"/>
<path d="M83.7853 151.418H79.9512V231.912H83.7853V151.418Z" fill="#535461"/>
<path d="M107.885 231.673L107.641 235.299L107.304 240.431L107.164 242.563L106.821 247.695L106.674 249.828L106.338 254.959L102.467 313.159C102.302 315.663 101.119 318.014 99.1588 319.732C97.1986 321.451 94.6093 322.407 91.9187 322.407H71.8185C69.1206 322.408 66.5244 321.446 64.5629 319.719C62.6014 317.992 61.4231 315.63 61.27 313.119L57.3992 254.919L57.0629 249.788L56.9222 247.655L56.5737 242.523L56.433 240.391L56.0967 235.259L55.8521 231.633C55.8098 230.938 55.9196 230.242 56.1749 229.588C56.4301 228.933 56.8255 228.334 57.3369 227.827C57.8483 227.32 58.4651 226.915 59.1497 226.637C59.8342 226.359 60.5723 226.214 61.319 226.21H102.424C103.174 226.214 103.916 226.361 104.602 226.642C105.289 226.923 105.907 227.331 106.419 227.843C106.93 228.354 107.324 228.958 107.576 229.617C107.828 230.275 107.933 230.975 107.885 231.673V231.673Z" fill="#3F3D56"/>
<path d="M107.64 235.293L107.298 240.414H56.4328L56.0903 235.293H107.64Z" fill="#9D9CB5"/>
<path d="M107.157 242.546L106.821 247.667H56.9157L56.5732 242.546H107.157Z" fill="#9D9CB5"/>
<path d="M106.674 249.805L106.338 254.919H57.3991L57.0566 249.805H106.674Z" fill="#9D9CB5"/>
<path d="M50.2629 181.593C72.5951 196.657 81.8961 220.218 81.8961 220.218C81.8961 220.218 54.9898 219.357 32.6515 204.292C10.3132 189.228 1 165.685 1 165.685C1 165.685 27.9062 166.528 50.2629 181.593Z" fill="#78D2CF"/>
<path d="M1 165.685C1 165.685 28.9275 180.139 37.886 192.107C46.8446 204.075 81.8716 220.229 81.8716 220.229" stroke="#535461" stroke-width="2" stroke-miterlimit="10"/>
<path d="M37.8491 142.58C37.8491 142.58 53.0512 150.449 57.931 156.961C62.8108 163.472 81.8714 172.265 81.8714 172.265" stroke="#535461" stroke-width="2" stroke-miterlimit="10"/>
<path d="M99.5319 171.615C85.5712 185.921 82.6177 204.617 82.6177 204.617C82.6177 204.617 102.302 200.113 116.25 185.801C130.199 171.489 133.165 152.798 133.165 152.798C133.165 152.798 113.493 157.309 99.5319 171.615Z" fill="#78D2CF"/>
<path d="M133.177 152.804C133.177 152.804 114.991 167.469 110.368 177.573C105.745 187.677 82.6177 204.617 82.6177 204.617" stroke="#535461" stroke-width="2" stroke-miterlimit="10"/>
<defs>
<linearGradient id="paint0_linear_197_214" x1="285.374" y1="329.398" x2="285.374" y2="0.0272492" gradientUnits="userSpaceOnUse">
<stop stop-color="#808080" stop-opacity="0.25"/>
<stop offset="0.54" stop-color="#808080" stop-opacity="0.12"/>
<stop offset="1" stop-color="#808080" stop-opacity="0.1"/>
</linearGradient>
</defs>
</svg>
