<svg width="187" height="408" viewBox="0 0 187 408" fill="none" xmlns="http://www.w3.org/2000/svg">
<path d="M13.1783 378.074C13.4325 387.589 15.0222 397.021 17.9005 406.092C17.9643 406.302 18.0351 406.51 18.104 406.72H35.7249C35.7064 406.532 35.6873 406.321 35.6687 406.092C34.4939 392.548 41.2059 311.098 49.3051 297.001C48.5955 298.144 11.812 335.039 13.1783 378.074Z" fill="#E6E6E6"/>
<path d="M14.5005 406.092C14.6479 406.302 14.801 406.513 14.958 406.72H28.1777C28.0775 406.541 27.9613 406.331 27.8267 406.092C25.643 402.14 19.1793 390.324 13.1795 378.074C6.73436 364.91 0.816281 351.247 1.31467 346.302C1.16024 347.417 -3.30162 381.417 14.5005 406.092Z" fill="#E6E6E6"/>
<path d="M175.772 116.561L152.984 132.815L167.164 134.338L186.914 117.579L175.772 116.561Z" fill="#3F3D56"/>
<path d="M86.6176 394.076L100.323 394.076L106.844 341.064L86.615 341.065L86.6176 394.076Z" fill="#9F616A"/>
<path d="M83.1212 389.589L110.113 389.588H110.114C114.676 389.588 119.051 391.406 122.277 394.64C125.503 397.875 127.315 402.262 127.316 406.837V407.397L83.122 407.399L83.1212 389.589Z" fill="#2F2E41"/>
<path d="M78.0006 204.731C78.0006 204.731 72.0606 211.464 81.8964 237.711L80.1639 381.624L112.039 381.001L119.045 310.801L131.802 208.359L78.0006 204.731Z" fill="#2F2E41"/>
<path d="M46.1764 182.013C44.2932 182.008 42.4861 181.267 41.1386 179.948C39.7912 178.629 39.0094 176.835 38.9593 174.947L37.4635 118.42L63.0583 69.7286C63.6395 68.6321 64.4898 67.7024 65.5291 67.0272C66.5683 66.352 67.7621 65.9537 68.9975 65.8699L88.5031 64.6141L86.8188 178.557L46.8108 181.986C46.5984 182.004 46.387 182.013 46.1764 182.013Z" fill="#A0616A"/>
<path d="M142.734 224.628L142.385 224.575C101.608 218.339 70.8374 212.36 70.5313 212.301L70.149 212.226L80.8384 186.155C80.7539 183.431 78.4401 106.931 82.8696 84.952C87.1576 63.6749 107.37 60.188 109.673 59.8599L111.986 52.1758L141.205 67.4218L146.3 85.0086L147.336 133.21L142.734 224.628Z" fill="#3F3D56"/>
<path d="M102.581 151.655C83.7555 151.655 68.4402 131.131 68.4402 105.903C68.4402 80.6746 83.7555 60.1501 102.581 60.1501C121.406 60.1501 136.721 80.6746 136.721 105.903C136.721 131.131 121.406 151.655 102.581 151.655ZM102.581 64.6294C86.2186 64.6294 72.9072 83.1445 72.9072 105.903C72.9072 128.661 86.2186 147.176 102.581 147.176C118.942 147.176 132.254 128.661 132.254 105.903C132.254 83.1445 118.942 64.6294 102.581 64.6294Z" fill="#A0616A"/>
<path d="M160.332 125.42C159.016 125.419 157.715 125.692 156.509 126.221C155.304 126.749 154.22 127.523 153.327 128.492H104.216L86.2263 132.331L89.1799 155.175L153.173 141.374C154.232 142.574 155.575 143.489 157.077 144.034C158.58 144.58 160.195 144.74 161.775 144.499C163.355 144.258 164.85 143.624 166.123 142.655C167.395 141.686 168.406 140.412 169.062 138.951C169.717 137.489 169.998 135.886 169.877 134.288C169.756 132.69 169.238 131.148 168.37 129.802C167.502 128.457 166.311 127.351 164.907 126.585C163.503 125.82 161.93 125.419 160.332 125.42Z" fill="#9F616A"/>
<path d="M156.726 48.9389C165.969 39.6701 165.969 24.6423 156.726 15.3735C147.483 6.10461 132.496 6.10462 123.253 15.3735C114.009 24.6423 114.009 39.6701 123.253 48.9389C132.496 58.2078 147.483 58.2078 156.726 48.9389Z" fill="#9F616A"/>
<path d="M117.728 13.1818L116.581 10.8659L122.355 7.98933C122.355 7.98933 128.724 -2.40291 140.25 0.517536C151.775 3.43798 156.961 5.18581 156.961 5.18581L162.72 8.09162L159.83 10.9755L165.015 12.7234L161.551 14.4493L165.582 16.7725L163.412 28.6819C163.412 28.6819 159.808 19.649 152.879 23.1009C145.951 26.5528 133.278 21.3165 133.278 21.3165L122.267 42.6835C122.267 42.6835 119.996 35.1933 115.946 37.1906C115.946 37.1906 105.6 20.6681 117.728 13.1818Z" fill="#2F2E41"/>
<path d="M48.0205 176.001L45.3895 118.473L72.3392 65.6475L73.4751 66.2304L46.6804 118.754L49.2955 175.942L48.0205 176.001Z" fill="#3F3D56"/>
<path d="M89.4943 159.457L83.8779 142.704L82.5194 86.8618L84.9124 78.9387C85.7738 76.087 87.2004 73.4391 89.1067 71.1535C91.0131 68.868 93.36 66.9919 96.0067 65.6377C98.6535 64.2834 101.546 63.479 104.51 63.2725C107.474 63.066 110.45 63.4617 113.258 64.4359C116.066 65.4101 118.649 66.9427 120.852 68.942C123.055 70.9412 124.833 73.3659 126.08 76.0707C127.326 78.7756 128.015 81.7049 128.105 84.6831C128.195 87.6613 127.685 90.6272 126.605 93.4029L113.779 126.361L114.431 127.63L142.219 127.404L152.089 145.221L89.4943 159.457Z" fill="#3F3D56"/>
</svg>
