<svg width="167" height="378" viewBox="0 0 167 378" fill="none" xmlns="http://www.w3.org/2000/svg">
<path opacity="0.1" d="M22.2733 48.6716H0.238403V54.8032H22.2733V48.6716Z" fill="#78D2CF"/>
<path opacity="0.1" d="M22.2733 57.4058H0.238403V75.2944H22.2733V57.4058Z" fill="#78D2CF"/>
<path opacity="0.1" d="M22.2733 159.063H0.238403V185.692H22.2733V159.063Z" fill="#78D2CF"/>
<path opacity="0.1" d="M22.2732 234.696C22.4889 234.696 22.7047 234.696 22.9269 234.738C22.7112 234.738 22.4955 234.738 22.2732 234.702V240.888H0.238403V214.259H22.2732V234.696Z" fill="#78D2CF"/>
<path opacity="0.1" d="M22.2732 269.449V290.013C14.9 289.449 7.55503 288.658 0.238403 287.642V269.449H22.2732Z" fill="#78D2CF"/>
<path opacity="0.1" d="M95.0777 65.579H76.4875V82.9131H95.0777V65.579Z" fill="#78D2CF"/>
<path opacity="0.1" d="M166.045 65.579H147.455V82.9131H166.045V65.579Z" fill="#78D2CF"/>
<path opacity="0.1" d="M95.0777 108.335H76.4875V125.669H95.0777V108.335Z" fill="#78D2CF"/>
<path opacity="0.1" d="M166.045 108.335H147.455V125.669H166.045V108.335Z" fill="#78D2CF"/>
<path opacity="0.1" d="M95.0777 151.085H76.4875V168.419H95.0777V151.085Z" fill="#78D2CF"/>
<path opacity="0.1" d="M166.045 151.085H147.455V168.419H166.045V151.085Z" fill="#78D2CF"/>
<path opacity="0.1" d="M95.0777 193.841H76.4875V211.175H95.0777V193.841Z" fill="#78D2CF"/>
<path opacity="0.1" d="M166.045 193.841H147.455V211.175H166.045V193.841Z" fill="#78D2CF"/>
<path opacity="0.1" d="M95.0777 236.597H76.4875V253.931H95.0777V236.597Z" fill="#78D2CF"/>
<path opacity="0.1" d="M166.045 236.597H147.455V253.931H166.045V236.597Z" fill="#78D2CF"/>
<path opacity="0.1" d="M76.4875 290.525V279.347H95.0711V288.935L76.4875 290.525Z" fill="#78D2CF"/>
<path opacity="0.1" d="M103.308 377.196C138.484 377.196 167 372.925 167 367.657C167 362.389 138.484 358.118 103.308 358.118C68.1312 358.118 39.6151 362.389 39.6151 367.657C39.6151 372.925 68.1312 377.196 103.308 377.196Z" fill="#78D2CF"/>
<path d="M160.98 135.092C160.98 135.092 158.404 134.757 158.404 131.264C158.404 127.772 156.561 121.232 156.561 121.232C156.561 121.232 154.966 109.853 152.763 108.049C150.56 106.245 147.73 95.6516 147.73 95.6516C147.73 95.6516 147.246 89.904 146.259 88.6668C145.272 87.4295 143.939 84.4003 141.971 80.079C140.004 75.7577 131.82 72.7955 131.82 72.7955C131.82 72.7955 116.989 64.7746 112.785 62.1598C112.401 61.9431 112.042 61.6899 111.713 61.4041C110.981 60.5142 107.792 60.4959 107.792 60.4959C107.458 58.5272 107.138 56.2721 107.033 54.2303C107.033 54.0109 107.033 53.7915 107.033 53.572C111.72 50.9889 115.25 46.9161 116.975 42.1014C117.054 41.8698 117.119 41.632 117.191 41.3943C117.478 41.3118 117.743 41.1735 117.968 40.9886C118.193 40.8037 118.374 40.5764 118.498 40.3216C118.871 39.5354 118.884 38.6211 119.355 37.8836C119.904 37.0182 120.95 36.555 121.773 35.9089C123.852 34.2572 124.388 31.484 124.29 28.9667C124.224 26.9188 123.872 24.8587 124.009 22.8291C124.009 22.6585 124.009 22.4878 124.048 22.3171C124.087 22.0185 124.133 21.7077 124.192 21.4151C124.512 19.9036 125.212 18.4773 125.604 16.978C125.996 15.4786 126.035 13.7903 125.12 12.4982C123.78 10.6027 120.989 10.2248 118.538 10.0602C115.76 9.84079 113.308 10.1212 111.498 7.96965C110.667 6.84593 109.731 5.79344 108.7 4.82465C108.334 4.50771 104.778 2.4781 104.778 2.3501C101.299 0.84176 97.352 0.558141 93.666 1.55165C91.8161 2.05143 90.084 2.86817 88.208 3.27653C84.1814 4.16639 79.5404 3.20339 76.1153 5.35491C74.2066 6.5739 73.0627 8.51819 71.9907 10.4015C71.1191 11.9537 70.2345 13.5079 69.3368 15.0642C67.8857 17.6179 66.4215 20.2144 65.8136 23.0424C65.6864 23.6602 65.6056 24.2854 65.5718 24.9136V24.9136C65.5718 25.1391 65.5718 25.3646 65.5718 25.5901C65.5718 25.6876 65.5718 25.7852 65.5718 25.8827C65.5718 26.0899 65.5718 26.2971 65.611 26.4922C65.6502 26.6872 65.611 26.7421 65.6567 26.8701C65.7025 26.9981 65.7155 27.2845 65.7548 27.4796C65.794 27.6746 65.8724 28.022 65.9509 28.2841C65.9509 28.3999 66.0293 28.5096 66.0685 28.6254C66.1077 28.7412 66.2123 29.0338 66.2973 29.2349C66.3823 29.436 66.3888 29.4482 66.4411 29.5518C66.5391 29.7652 66.6568 29.9724 66.7745 30.1613C66.8268 30.2406 66.866 30.3198 66.9183 30.3991C67.0975 30.6844 67.2985 30.9573 67.5197 31.2158C68.9119 32.8431 70.9775 33.8793 72.5005 35.403C72.5005 35.464 72.5005 35.5249 72.5005 35.5859C72.5005 35.7504 72.5005 35.915 72.5005 36.0856C72.5937 39.4842 73.5762 42.8101 75.3626 45.7738C77.1489 48.7375 79.6849 51.2493 82.7499 53.0906C82.7499 53.3222 82.7826 53.5599 82.7956 53.7976C82.9231 55.6047 82.8991 57.4184 82.7237 59.2221C82.457 58.9304 82.1236 58.6981 81.7482 58.542C81.3727 58.3859 80.9646 58.3101 80.5536 58.32C80.2727 58.307 79.9913 58.3295 79.7169 58.387L79.6581 58.3444V58.3993C78.22 58.7284 76.4486 60.1241 74.7557 64.0919C74.7557 64.0919 69.6048 69.5043 65.6829 69.2787C61.7609 69.0532 51.8319 74.9166 51.8319 74.9166C51.8319 74.9166 42.1446 80.7738 40.066 86.7469C38.904 90.1347 37.5088 93.4491 35.8891 96.6694L23.8814 119.66L21.6786 137.944C21.6786 137.944 22.9009 146.057 22.6591 147.3C22.4172 148.544 27.6857 159.697 27.6857 159.697C27.6857 159.697 45.0926 188.209 52.2044 189.672L52.7143 189.343C53.0199 189.487 53.3424 189.597 53.6752 189.672L55.1394 188.715C55.23 189.787 55.1905 190.864 55.0217 191.927C54.0478 194.749 55.3943 213.12 57.1069 216.722C58.8195 220.324 58.2116 267.56 58.2116 267.56L57.9697 271.722C57.9697 271.722 57.9697 271.857 58.0285 272.088L57.9697 273.076L58.1462 273.161C58.3293 274.485 58.2696 275.829 57.9697 277.135C57.3553 278.963 57.1069 284.126 57.1069 284.126C57.1069 284.126 52.2044 313.308 54.5315 319.172C56.8585 325.035 58.826 331.459 58.826 331.459C58.826 331.459 61.2772 338.773 58.9437 339.992C56.6101 341.211 50.0016 343.375 51.3482 346.416C52.5901 349.232 57.303 356.777 58.0024 357.881L57.9435 358.49L56.9827 368.199C57.1383 369.481 57.5111 370.732 58.0874 371.905C59.1398 374.026 61.1792 376.214 65.075 375.977C65.7286 375.934 66.4803 375.867 67.219 375.775C74.3373 374.879 83.0963 371.917 83.0963 371.917C82.6422 371.649 82.227 371.328 81.8609 370.96V370.96C81.511 370.644 81.2338 370.265 81.0461 369.846C80.8584 369.427 80.7643 368.977 80.7693 368.522C80.8739 366.749 77.3245 358.332 76.4356 356.253L76.2329 355.79C76.2329 355.79 84.3252 347.897 82.9787 340.912C82.9787 340.912 74.0236 336.036 76.9716 333.355C79.9196 330.673 85.188 322.993 85.188 322.993C85.188 322.993 85.4299 294.256 85.188 289.971C84.9359 286.991 85.0874 283.993 85.639 281.048C85.7371 280.609 85.8548 280.176 85.979 279.743C90.0595 280.318 94.1802 280.609 98.3069 280.615C99.8147 280.615 101.34 280.587 102.883 280.53C102.883 280.936 102.902 281.375 102.941 281.846C103.281 288.965 103.915 301.454 104.432 306.092C105.164 312.735 109.21 330.661 109.21 330.661C109.21 330.661 101.49 335.275 110.556 346.666C110.556 346.666 110.557 350.786 109.955 351.39C109.313 353.344 108.795 355.333 108.406 357.344C108.027 359.484 107.87 361.66 108.484 362.781C109.955 365.475 118.78 365.256 118.78 365.256C118.85 365.24 118.923 365.23 118.995 365.225C120.661 365.061 122.345 365.208 123.949 365.658C125.553 366.108 127.044 366.852 128.336 367.846C131.689 370.357 144.409 369.26 151.306 368.455C154.005 368.132 155.809 367.846 155.809 367.846C155.896 367.561 155.927 367.264 155.901 366.968V366.968C155.829 365.39 154.502 361.928 145.508 358.838C145.508 358.838 137.049 353.535 137.167 348.915H136.977H136.003C136.618 348.897 137.049 348.897 137.049 348.897C137.049 348.897 133.735 337.627 135.088 336.707C136.441 335.786 132.389 323.298 132.389 323.298C132.389 323.298 130.068 302.331 129.937 300.869C129.946 299.608 130.153 298.355 130.552 297.151L129.937 285.649C129.937 285.649 129.82 281.828 129.937 280.585C129.924 279.505 129.833 278.428 129.663 277.36C129.604 276.934 129.545 276.489 129.48 276.05C132.65 275.3 134.709 274.611 134.709 274.611L134.343 234.598C137.036 229.722 137.533 219.019 137.52 211.437C137.52 206.561 137.285 202.953 137.285 202.953L140.965 197.352C140.965 197.352 141.814 190.647 140.468 189.179C139.873 188.514 140.141 187.825 140.631 187.259C140.889 187.062 141.162 186.882 141.448 186.722C141.416 186.68 141.388 186.635 141.363 186.588C141.62 186.388 141.894 186.207 142.18 186.046C142.18 186.046 140.873 184.156 142.043 183.358C143.141 184.053 144.122 184.607 144.867 185.004C144.815 185.448 144.762 185.704 144.762 185.704L145.076 185.095C145.795 185.473 146.233 185.704 146.233 185.704C146.233 185.704 151.998 174.996 151.874 173.423C151.75 171.851 155.796 165.195 155.796 165.195C155.796 165.195 156.286 161.696 158.496 160.234C160.705 158.771 160.208 148.172 160.208 148.172C160.208 148.172 160.823 142.65 162.294 140.401C163.764 138.152 160.98 135.092 160.98 135.092ZM50.6683 130.393L50.7795 132.947C50.1258 131.965 49.6552 131.264 49.6552 131.264L50.6683 130.393Z" fill="url(#paint0_linear_198_3)"/>
<path d="M146.573 181.072L145.161 186.68C145.161 186.68 133.853 181.286 131.82 174.459C129.787 167.633 135.225 165.031 135.225 165.031L145.769 169.187L146.573 181.072Z" fill="white"/>
<path opacity="0.1" d="M146.573 181.072L145.161 186.68C145.161 186.68 133.853 181.286 131.82 174.459C129.787 167.633 135.225 165.031 135.225 165.031L145.769 169.187L146.573 181.072Z" fill="black"/>
<path d="M83.1096 371.911C83.1096 371.911 72.6511 375.495 65.4608 375.946C61.6435 376.184 59.6368 374.002 58.604 371.899C58.0428 370.739 57.6768 369.506 57.5189 368.242L58.4667 358.582L58.9635 353.444L74.2395 349.738L76.4031 355.912L76.6058 356.375C77.4686 358.441 80.9591 366.816 80.8545 368.565C80.8461 369.018 80.9362 369.467 81.1193 369.886C81.3025 370.305 81.5748 370.685 81.92 371.003C82.2737 371.352 82.6734 371.657 83.1096 371.911V371.911Z" fill="white"/>
<path d="M154.515 366.999C154.542 367.294 154.511 367.591 154.424 367.876C154.424 367.876 132.056 371.351 127.48 367.876C126.194 366.862 124.695 366.108 123.078 365.664C121.462 365.22 119.764 365.096 118.094 365.298C118.094 365.298 109.439 365.518 107.995 362.86C107.393 361.745 107.55 359.581 107.923 357.454C108.303 355.453 108.81 353.475 109.439 351.53L109.786 351.274L111.845 349.732L135.951 349.067H136.134C136.017 353.663 144.312 358.935 144.312 358.935C153.143 361.983 154.443 365.426 154.515 366.999Z" fill="white"/>
<path opacity="0.1" d="M154.521 366.999C154.545 367.294 154.511 367.591 154.423 367.876C154.423 367.876 132.055 371.35 127.486 367.876C126.199 366.861 124.699 366.107 123.081 365.663C121.464 365.219 119.765 365.095 118.093 365.298C118.093 365.298 109.432 365.518 107.987 362.86C107.393 361.745 107.543 359.581 107.916 357.448C111.249 357.759 116.511 358.533 118.577 360.386C121.701 363.189 126.996 365.993 130.238 366.218C132.8 366.365 148.037 366.816 154.521 366.999Z" fill="black"/>
<path opacity="0.1" d="M83.1094 371.911C83.1094 371.911 72.6509 375.495 65.4606 375.946C61.6433 376.184 59.6365 374.002 58.6038 371.899C61.2707 372.734 64.9639 373.606 66.9052 372.807C69.2061 371.85 77.3638 371.241 81.9394 370.979C82.2844 371.335 82.6777 371.649 83.1094 371.911V371.911Z" fill="black"/>
<path d="M98.6274 83.0777C89.9991 79.951 78.9 69.62 81.6715 64.7928C82.2841 63.5737 82.6497 62.2595 82.7501 60.9165C82.9284 59.0926 82.9546 57.2586 82.8285 55.431C82.6339 52.4358 82.2476 49.4541 81.6715 46.5019C81.6715 46.5019 108.609 47.0687 107.04 50.7684C106.582 51.8594 106.504 53.7427 106.635 55.8455C106.765 57.9482 107.086 60.3435 107.426 62.361C107.89 65.122 108.367 67.2369 108.367 67.2369C108.367 67.2369 106.713 69.3884 105.752 69.5042C104.791 69.62 111.008 87.5575 98.6274 83.0777Z" fill="#CF6F80"/>
<path opacity="0.1" d="M76.5794 356.345L76.3768 356.552C68.3237 347.47 58.5843 358.795 58.5843 358.795L58.4404 358.551L58.9372 353.413L74.2132 349.707L76.3768 355.882L76.5794 356.345Z" fill="black"/>
<path opacity="0.1" d="M136.147 349.707C136.147 349.707 130.264 349.598 127.127 352.182C123.989 354.766 108.824 352.736 109.478 352.182C109.669 351.9 109.785 351.581 109.818 351.249L111.877 349.707L135.984 349.043C136.075 349.47 136.147 349.707 136.147 349.707Z" fill="black"/>
<path d="M86.5997 278.39C86.1624 279.401 85.8297 280.448 85.6061 281.517C85.061 284.446 84.9095 287.427 85.1551 290.391C85.3969 294.658 85.1551 323.249 85.1551 323.249C85.1551 323.249 79.9847 330.874 77.0955 333.562C74.2063 336.25 82.9784 341.077 82.9784 341.077C84.2857 348.031 76.3634 355.882 76.3634 355.882C68.3103 346.8 58.5708 358.118 58.5708 358.118C58.5708 358.118 53.2761 349.586 51.9557 346.538C50.6354 343.491 57.1262 341.388 59.4074 340.144C61.6887 338.901 59.2898 331.612 59.2898 331.612C59.2898 331.612 57.368 325.218 55.0802 319.385C52.7924 313.552 57.6034 284.522 57.6034 284.522C57.6034 284.522 57.8517 279.36 58.4466 277.561C58.7434 276.264 58.8031 274.928 58.6231 273.612C58.5839 273.167 58.5381 272.801 58.5054 272.545C58.4727 272.289 58.4466 272.18 58.4466 272.18L58.5381 272.033L61.8064 266.353C61.8064 266.353 88.1685 274.813 86.5997 278.39Z" fill="#78D2CF"/>
<path d="M136.147 349.037C136.147 349.037 130.264 348.921 127.126 351.475C123.989 354.029 108.824 352.036 109.478 351.475C110.131 350.914 110.072 346.77 110.072 346.77C101.176 335.439 108.765 330.843 108.765 330.843C108.765 330.843 104.797 313.016 104.078 306.403C103.575 301.789 102.954 289.337 102.621 282.285C102.477 279.238 102.392 277.135 102.392 277.135L109.595 275.8L110.53 275.629L128.061 272.344C128.061 272.344 128.545 275.392 128.872 277.884C129.037 278.948 129.126 280.021 129.14 281.096C129.028 282.315 129.14 286.137 129.14 286.137L129.741 297.571C129.353 298.771 129.15 300.017 129.14 301.271C129.264 302.734 131.545 323.584 131.545 323.584C131.545 323.584 135.513 336.03 134.16 336.926C132.807 337.822 136.147 349.037 136.147 349.037Z" fill="#78D2CF"/>
<path opacity="0.1" d="M107.04 50.7866C106.582 51.8776 106.504 53.7609 106.635 55.8637C103.027 57.8896 98.8787 58.9254 94.6676 58.8521C90.4565 58.7788 86.353 57.5994 82.8285 55.4492C82.6339 52.454 82.2475 49.4724 81.6715 46.5201C81.6715 46.5201 108.609 47.087 107.04 50.7866Z" fill="black"/>
<path d="M117.439 37.329C117.51 42.859 115.223 48.1888 111.079 52.146C106.936 56.1031 101.276 58.3634 95.3456 58.4297C89.4149 58.496 83.6989 56.3628 79.455 52.4994C75.2111 48.6359 72.787 43.3588 72.7159 37.8288C72.7159 37.6581 72.7159 37.4997 72.7159 37.329C72.7159 31.7974 75.0726 26.4924 79.2674 22.5809C83.4623 18.6695 89.1517 16.4721 95.0841 16.4721C101.017 16.4721 106.706 18.6695 110.901 22.5809C115.096 26.4924 117.452 31.7974 117.452 37.329H117.439Z" fill="#CF6F80"/>
<path opacity="0.1" d="M98.6274 83.0778C89.9991 79.9511 78.9 69.6201 81.6715 64.7929C82.2841 63.5738 82.6497 62.2596 82.7501 60.9166L94.5617 69.9736L101.87 75.5627L107.426 62.3793C107.89 65.1404 108.367 67.2553 108.367 67.2553C108.367 67.2553 106.713 69.4068 105.752 69.5226C104.791 69.6384 111.008 87.5576 98.6274 83.0778Z" fill="black"/>
<path d="M129.172 123.103L119.309 277.61L106.445 278.396L73.1276 188.807L78.5921 82.4438L79.7491 59.9717L94.561 71.3144L101.869 76.9034L107.588 63.33L118.223 71.9726L129.172 123.103Z" fill="#78D2CF"/>
<path opacity="0.1" d="M86.5997 278.39C86.1624 279.401 85.8297 280.448 85.6061 281.517C76.2367 280.172 67.1367 277.524 58.61 273.661L58.4335 273.575L58.4923 272.594V272.082L61.7606 266.402C61.7606 266.402 88.1684 274.813 86.5997 278.39Z" fill="black"/>
<path opacity="0.1" d="M109.811 281.541C107.418 281.923 105.005 282.181 102.581 282.315C102.438 279.268 102.353 277.165 102.353 277.165L109.595 275.8L109.811 281.541Z" fill="black"/>
<path opacity="0.1" d="M128.898 277.884C124.251 279.012 117.067 280.28 110.648 279.487L110.557 275.629L128.088 272.344C128.088 272.344 128.552 275.367 128.898 277.884Z" fill="black"/>
<path opacity="0.1" d="M110.53 280.195C83.7304 284.461 59.1855 272.228 59.1855 272.228L59.4208 268.084C59.4208 268.084 60.0288 221.098 58.3423 217.496C56.6559 213.894 55.342 195.652 56.2964 192.866C57.2507 190.081 52.8124 148.026 52.8124 148.026L52.0934 130.96L25.7574 120.982L37.5233 98.108C39.1121 94.9016 40.4789 91.6036 41.6152 88.2342C43.6612 82.2916 53.1588 76.4587 53.1588 76.4587C53.1588 76.4587 62.8983 70.632 66.7484 70.8514C70.5984 71.0708 75.6447 65.6951 75.6447 65.6951C79.3705 56.8391 82.7434 60.8191 82.7434 60.8191C82.7434 61.2458 82.7434 60.8191 82.5604 62.1295C81.253 71.851 103.7 102.569 104.02 103.118L106.184 151.67L108.347 213.114L110.53 280.195Z" fill="black"/>
<path d="M109.811 280.195C83.0111 284.461 58.4597 272.228 58.4597 272.228L58.7016 268.084C58.7016 268.084 59.3029 221.098 57.6165 217.496C55.93 213.894 54.6162 195.633 55.5771 192.823C56.5379 190.014 52.0735 148.001 52.0735 148.001L51.3479 130.935L25.0186 120.958L36.7844 98.0836C38.3695 94.8779 39.7362 91.5821 40.8763 88.2159C42.9223 82.2916 52.4526 76.4526 52.4526 76.4526C52.4526 76.4526 62.1921 70.6259 66.0356 70.8453C69.8791 71.0647 74.9515 65.6951 74.9515 65.6951C78.6839 56.8391 82.7954 60.8191 82.7954 60.8191C82.7954 61.2458 82.4032 61.4286 82.6123 62.1295C85.4884 71.5584 103.033 102.569 103.353 103.118L105.517 151.67L107.634 213.144L109.811 280.195Z" fill="white"/>
<path opacity="0.1" d="M102.589 104.489C99.7061 103.368 84.4366 87.1125 84.4366 87.1125V83.4129C83.881 82.1939 80.5735 82.9375 77.9 83.7908L79.0505 61.3187L80.3578 62.3305C83.2143 71.7533 102.275 103.947 102.589 104.489Z" fill="black"/>
<path d="M103.314 103.148C100.425 102.021 85.1552 85.7716 85.1552 85.7716V82.0658C84.5996 80.8469 81.2987 81.5904 78.6187 82.4437L79.7495 59.996L81.0568 61.0017C83.9395 70.4123 102.994 102.6 103.314 103.148Z" fill="white"/>
<path opacity="0.1" d="M59.1856 184.211C59.5451 184.211 77.8214 182.419 77.8214 182.419C77.8214 182.419 88.8878 202.715 88.1623 207.646C87.4367 212.577 86.1229 216.953 81.6714 216.179C77.22 215.405 57.7148 216.789 57.7148 216.789L59.1856 184.211Z" fill="black"/>
<path d="M58.4599 182.864C58.8259 182.864 77.1022 181.072 77.1022 181.072C77.1022 181.072 88.1621 201.399 87.4431 206.275C86.724 211.151 85.3971 215.582 80.9522 214.808C76.5074 214.034 56.9891 215.417 56.9891 215.417L58.4599 182.864Z" fill="white"/>
<path d="M72.2325 173.362C72.2325 173.362 89.0054 181.773 89.3649 184.333C89.7244 186.893 80.8281 183.212 78.9063 182.761C77.6406 182.48 76.3534 182.293 75.0563 182.2L62.238 182.523L72.2325 173.362Z" fill="#CF6F80"/>
<path opacity="0.1" d="M97.9021 105.538C98.8768 105.538 99.667 104.801 99.667 103.892C99.667 102.983 98.8768 102.246 97.9021 102.246C96.9274 102.246 96.1372 102.983 96.1372 103.892C96.1372 104.801 96.9274 105.538 97.9021 105.538Z" fill="black"/>
<path d="M97.9021 104.867C98.8768 104.867 99.667 104.13 99.667 103.222C99.667 102.313 98.8768 101.576 97.9021 101.576C96.9274 101.576 96.1372 102.313 96.1372 103.222C96.1372 104.13 96.9274 104.867 97.9021 104.867Z" fill="#3F3D56"/>
<path opacity="0.1" d="M101.15 176.775C102.125 176.775 102.915 176.039 102.915 175.13C102.915 174.221 102.125 173.484 101.15 173.484C100.176 173.484 99.3855 174.221 99.3855 175.13C99.3855 176.039 100.176 176.775 101.15 176.775Z" fill="black"/>
<path d="M101.15 176.099C102.125 176.099 102.915 175.362 102.915 174.453C102.915 173.544 102.125 172.808 101.15 172.808C100.176 172.808 99.3855 173.544 99.3855 174.453C99.3855 175.362 100.176 176.099 101.15 176.099Z" fill="#3F3D56"/>
<path opacity="0.1" d="M99.6665 141.156C100.641 141.156 101.431 140.42 101.431 139.511C101.431 138.602 100.641 137.865 99.6665 137.865C98.6918 137.865 97.9016 138.602 97.9016 139.511C97.9016 140.42 98.6918 141.156 99.6665 141.156Z" fill="black"/>
<path d="M99.6665 140.486C100.641 140.486 101.431 139.749 101.431 138.84C101.431 137.931 100.641 137.195 99.6665 137.195C98.6918 137.195 97.9016 137.931 97.9016 138.84C97.9016 139.749 98.6918 140.486 99.6665 140.486Z" fill="#3F3D56"/>
<path d="M140.35 181.859C140.35 181.859 141.553 183.541 140.35 184.297C139.147 185.052 140.468 186.99 140.468 186.99C140.468 186.99 137.467 188.624 138.788 190.105C140.108 191.586 139.271 198.236 139.271 198.236L135.663 203.837C135.663 203.837 135.879 207.427 135.892 212.278C135.892 219.848 135.415 230.49 132.774 235.342L133.127 275.148C133.127 275.148 120.492 279.457 109.916 278.14L108.347 214.265C108.347 214.265 110.635 178.043 111.478 171.095C111.971 167.488 112.172 163.851 112.079 160.215C112.079 160.215 111.72 149.342 110.51 144.301C110.51 144.301 109.203 122.433 109.072 116.38C109.014 113.485 109.177 105.038 109.36 97.0046C109.563 88.2218 109.791 79.9388 109.791 79.9388L107.406 62.3305C107.406 62.3305 109.791 62.111 110.51 63.0009C110.832 63.2814 111.183 63.5325 111.556 63.7506C115.681 66.347 130.231 74.3314 130.231 74.3314C130.231 74.3314 138.284 77.3179 140.213 81.5966C142.141 85.8753 143.481 88.9105 144.416 90.1295C145.35 91.3485 145.86 97.0778 145.86 97.0778C145.86 97.0778 148.632 107.622 150.795 109.408C152.959 111.194 154.515 122.53 154.515 122.53L135.395 136.549C135.395 136.549 133.715 159.868 133.356 160.77C132.996 161.672 140.35 181.859 140.35 181.859Z" fill="white"/>
<path d="M141.076 181.858C141.076 181.858 142.272 183.541 141.076 184.296C139.88 185.052 141.187 186.99 141.187 186.99C141.187 186.99 138.187 188.624 139.507 190.105C140.828 191.586 139.991 198.236 139.991 198.236L136.396 203.837C136.396 203.837 136.612 207.427 136.631 212.278C136.631 219.848 136.154 230.49 133.513 235.342L133.873 275.148C133.873 275.148 121.238 279.457 110.661 278.14L109.099 214.265C109.099 214.265 111.38 178.043 112.23 171.095C112.724 167.488 112.923 163.851 112.825 160.215C112.825 160.215 112.466 149.342 111.263 144.301C111.263 144.301 109.955 122.433 109.818 116.38C109.759 113.485 109.923 105.038 110.106 97.0046C110.308 88.2218 110.537 79.9387 110.537 79.9387L107.387 62.0927C107.387 62.0927 110.537 62.0927 111.263 63.0009C111.582 63.2847 111.932 63.536 112.309 63.7505V63.7505C116.427 66.347 130.977 74.3314 130.977 74.3314C130.977 74.3314 139.011 77.3179 140.972 81.5965C142.933 85.8752 144.24 88.9105 145.175 90.1295C146.109 91.3485 146.619 97.0777 146.619 97.0777C146.619 97.0777 149.391 107.622 151.554 109.408C153.718 111.194 155.28 122.53 155.28 122.53L136.161 136.549C136.161 136.549 134.481 159.868 134.115 160.77C133.749 161.672 141.076 181.858 141.076 181.858Z" fill="white"/>
<path opacity="0.1" d="M118.178 85.1133L119.91 89.8064L110.818 98.3393C111.02 89.5565 111.249 81.2735 111.249 81.2735L108.099 63.4335C108.099 63.4335 111.249 63.4335 111.975 64.3417C112.294 64.6255 112.644 64.8768 113.021 65.0913V65.0913L120.747 85.8691L118.178 85.1133Z" fill="black"/>
<path d="M117.44 83.7663L119.172 88.4533L110.086 96.9863C110.282 88.2034 110.517 79.9204 110.517 79.9204L107.36 62.0744C107.36 62.0744 110.517 62.0744 111.236 62.9825C111.557 63.2647 111.907 63.5159 112.282 63.7322V63.7322L120.054 84.5282L117.44 83.7663Z" fill="white"/>
<path opacity="0.1" d="M117.439 37.329C117.442 39.5252 117.071 41.7078 116.341 43.7958C116.218 43.8149 116.092 43.8108 115.971 43.7836C115.85 43.7563 115.735 43.7066 115.635 43.6373C115.459 38.1518 112.569 32.9955 109.007 28.6133C108.005 27.2915 106.793 26.1199 105.412 25.1391C104.014 24.1609 102.276 23.7025 100.536 23.8531C98.5747 24.103 96.8425 25.3464 94.8619 25.5048C92.2473 25.706 89.9071 24.0177 87.3121 23.9384C86.2569 23.9466 85.2159 24.1651 84.2587 24.5793C83.3015 24.9935 82.4505 25.5937 81.7626 26.3398C80.398 27.8405 79.3849 29.5906 78.7884 31.4779C77.7607 34.3415 77.201 37.3331 77.1281 40.3521C77.0955 42.0587 76.9189 44.198 75.2194 44.8197C75.348 43.5655 75.1954 42.3001 74.7712 41.1039C74.3469 39.9077 73.6604 38.8069 72.7552 37.8715L72.7159 37.8288C72.7159 37.6582 72.7159 37.4997 72.7159 37.329C72.7159 31.7974 75.0726 26.4924 79.2674 22.5809C83.4623 18.6695 89.1517 16.4721 95.0841 16.4721C101.017 16.4721 106.706 18.6695 110.901 22.5809C115.096 26.4924 117.452 31.7974 117.452 37.329H117.439Z" fill="black"/>
<path d="M104.366 4.21531C100.969 2.72548 97.1062 2.4437 93.5023 3.42296C91.6917 3.92274 89.9857 4.73338 88.1489 5.14174C84.227 6.0255 79.6513 5.06861 76.285 7.20793C74.4155 8.42692 73.2913 10.3529 72.2454 12.2302L69.6308 16.8684C68.2058 19.41 66.7678 21.9943 66.1729 24.7918C65.5781 27.5894 65.9376 30.7222 67.8398 32.9774C69.219 34.6108 71.2715 35.6409 72.7749 37.1829C73.6781 38.123 74.3628 39.2273 74.7857 40.4263C75.2087 41.6252 75.3609 42.8929 75.2326 44.1494C76.9321 43.5399 77.1021 41.3884 77.1413 39.6818C77.2147 36.6629 77.7744 33.6714 78.8016 30.8076C79.3981 28.9203 80.4112 27.1702 81.7757 25.6695C82.4633 24.9226 83.3142 24.3214 84.2713 23.9062C85.2284 23.491 86.2697 23.2713 87.3253 23.262C89.9399 23.3474 92.2865 25.0356 94.875 24.8284C96.836 24.676 98.5747 23.4327 100.549 23.1828C102.289 23.0292 104.029 23.4879 105.425 24.4688C106.807 25.4466 108.018 26.6186 109.014 27.9429C112.583 32.3313 115.478 37.4632 115.648 42.967C116.387 43.4668 117.452 42.8085 117.818 42.0284C118.184 41.2482 118.198 40.334 118.662 39.5904C119.198 38.731 120.224 38.2678 121.028 37.6217C123.067 35.9822 123.577 33.2212 123.499 30.7161C123.42 28.2111 122.897 25.6695 123.407 23.2072C123.714 21.7017 124.407 20.2816 124.786 18.7883C125.165 17.2951 125.211 15.6189 124.316 14.3329C123.008 12.4496 120.257 12.0717 117.858 11.8949C115.132 11.6755 112.694 11.9559 110.955 9.81657C110.137 8.70161 109.218 7.65356 108.21 6.68376C107.85 6.36073 104.366 4.3494 104.366 4.21531Z" fill="#512E4E"/>
<path opacity="0.1" d="M33.3007 132.746L26.4765 120.976L24.3129 139.139C24.3129 139.139 25.5156 147.209 25.2737 148.446C25.0319 149.683 30.2023 160.776 30.2023 160.776C30.2023 160.776 47.2824 189.148 54.2569 190.605L77.7886 174.904L71.5396 167.505C71.5396 167.505 69.376 166.719 68.8335 167.505C68.8335 167.505 57.2245 148.891 56.0283 147.55C54.8321 146.209 55.0609 143.509 55.0609 143.509C55.0609 143.509 53.2568 141.717 53.8582 140.035C54.4595 138.353 50.4069 132.526 50.4069 132.526L54.1327 129.278L33.3007 132.746Z" fill="black"/>
<path d="M26.8358 119.629L25.0317 120.976L22.868 139.139C22.868 139.139 24.0708 147.209 23.8289 148.446C23.587 149.683 28.7641 160.776 28.7641 160.776C28.7641 160.776 45.8376 189.148 52.8121 190.605L76.3831 174.904L70.1276 167.505C70.1276 167.505 67.9639 166.719 67.4214 167.505C67.4214 167.505 55.819 148.891 54.6162 147.55C53.4135 146.209 53.6554 143.509 53.6554 143.509C53.6554 143.509 51.8513 141.717 52.4526 140.035C53.054 138.353 48.9621 132.526 48.9621 132.526L52.6879 129.277L26.8358 119.629Z" fill="white"/>
<path opacity="0.1" d="M138.788 190.806C140.095 192.287 139.272 198.943 139.272 198.943L135.663 204.507C135.663 204.507 135.879 208.103 135.892 212.955L129.826 214.723C129.277 214.882 128.695 214.917 128.129 214.824C127.562 214.732 127.028 214.514 126.57 214.189C126.112 213.865 125.744 213.443 125.496 212.959C125.248 212.475 125.128 211.943 125.146 211.407L126.198 179.957L140.35 184.998C139.147 185.778 140.468 187.691 140.468 187.691C140.468 187.691 137.467 189.325 138.788 190.806Z" fill="black"/>
<path d="M139.507 190.135C140.814 191.61 139.991 198.266 139.991 198.266L136.396 203.837C136.396 203.837 136.611 207.427 136.631 212.278L130.454 214.076C129.917 214.233 129.349 214.268 128.795 214.178C128.241 214.088 127.718 213.876 127.27 213.559C126.823 213.242 126.462 212.83 126.22 212.357C125.978 211.884 125.861 211.364 125.878 210.84L126.931 179.28L141.076 184.333C139.866 185.113 141.187 187.027 141.187 187.027C141.187 187.027 138.187 188.654 139.507 190.135Z" fill="white"/>
<path d="M144.2 175.13C144.2 175.13 143.239 180.853 140.834 181.188C138.428 181.523 137.35 190.446 134.951 190.136C132.552 189.825 134.14 181.834 134.225 180.286C134.31 178.738 131.61 172.326 133.624 170.869C135.637 169.413 142.043 170.869 142.043 170.869L144.2 175.13Z" fill="#CF6F80"/>
<path opacity="0.1" d="M149.285 131.063L153.815 122.53C153.815 122.53 155.626 129.034 155.626 132.508C155.626 135.982 158.149 136.323 158.149 136.323C158.149 136.323 160.914 139.371 159.456 141.595C157.999 143.82 157.417 149.33 157.417 149.33C157.417 149.33 157.894 159.868 155.73 161.325C153.567 162.781 153.083 166.261 153.083 166.261C153.083 166.261 149.115 172.874 149.24 174.447C149.364 176.019 143.71 186.667 143.71 186.667C143.71 186.667 146.475 173.435 130.362 167.718C130.362 167.718 130.238 163.232 131.44 162.001C132.643 160.77 134.519 160.173 133.343 153.98C132.166 147.788 133.003 140.321 133.003 138.828C133.003 137.335 136.611 128.028 136.611 128.028L149.285 131.063Z" fill="black"/>
<path d="M151.299 121.311L155.26 122.53C155.26 122.53 157.071 129.034 157.071 132.508C157.071 135.982 159.594 136.323 159.594 136.323C159.594 136.323 162.359 139.371 160.901 141.595C159.444 143.82 158.855 149.33 158.855 149.33C158.855 149.33 159.339 159.868 157.175 161.325C155.012 162.781 154.561 166.261 154.561 166.261C154.561 166.261 150.593 172.874 150.717 174.447C150.841 176.019 145.181 186.667 145.181 186.667C145.181 186.667 147.946 173.435 131.833 167.718C131.833 167.718 131.715 163.232 132.918 162.001C134.121 160.77 135.997 160.173 134.82 153.98C133.644 147.788 134.48 140.321 134.48 138.828C134.48 137.335 138.089 128.028 138.089 128.028L151.299 121.311Z" fill="white"/>
<path opacity="0.1" d="M63.7871 342.479C63.7871 342.479 70.1015 338.779 74.2457 341.467C78.3899 344.155 63.7871 342.479 63.7871 342.479Z" fill="black"/>
<path opacity="0.1" d="M112.864 331.039C112.864 331.039 118.453 330.368 123.146 335.079C127.839 339.791 112.864 331.039 112.864 331.039Z" fill="black"/>
<g opacity="0.1">
<path opacity="0.1" d="M121.028 36.2805C120.224 36.9327 119.192 37.3898 118.656 38.2492C118.198 38.9867 118.185 39.9009 117.819 40.6872C117.453 41.4734 116.387 42.1256 115.642 41.6258C115.472 36.1403 112.577 30.9901 109.014 26.6018C108.018 25.2793 106.807 24.1093 105.426 23.1337C104.027 22.1508 102.286 21.69 100.543 21.8416C98.5818 22.0915 96.8561 23.3349 94.8755 23.4933C92.2609 23.6945 89.9143 22.0062 87.3193 21.927C86.2649 21.9344 85.2245 22.1526 84.2683 22.5669C83.3121 22.9811 82.4623 23.5818 81.7762 24.3284C80.4117 25.8291 79.3986 27.5792 78.8021 29.4664C77.7749 32.3302 77.2152 35.3217 77.1418 38.3406C77.1026 40.0411 76.9327 42.1622 75.2462 42.796C75.2854 43.2484 75.2854 43.7029 75.2462 44.1552C76.9523 43.5457 77.1222 41.3942 77.1614 39.6876C77.2349 36.6687 77.7945 33.6772 78.8217 30.8134C79.4182 28.9261 80.4313 27.176 81.7958 25.6753C82.4824 24.9289 83.3322 24.3279 84.2882 23.9127C85.2442 23.4975 86.2843 23.2776 87.3389 23.2678C89.9535 23.3532 92.3067 25.0415 94.8952 24.8342C96.8561 24.6819 98.5949 23.4385 100.562 23.1886C102.305 23.0353 104.046 23.4939 105.445 24.4746C106.827 25.4524 108.038 26.6244 109.034 27.9488C112.596 32.3371 115.492 37.4691 115.662 42.9728C116.407 43.4726 117.472 42.8143 117.839 42.0342C118.205 41.254 118.218 40.3398 118.675 39.5962C119.211 38.7368 120.244 38.2736 121.048 37.6275C123.087 35.988 123.597 33.227 123.519 30.722C123.519 30.6427 123.519 30.5696 123.519 30.4903C123.388 32.6723 122.767 34.8848 121.028 36.2805Z" fill="black"/>
<path opacity="0.1" d="M72.7686 35.854C71.2717 34.3119 69.2192 33.2758 67.84 31.6424C66.6751 30.2004 66.0113 28.4606 65.9379 26.6567C65.7328 28.9123 66.4082 31.1612 67.84 32.9893C69.2192 34.6228 71.2717 35.6528 72.7686 37.1948C74.2144 38.7024 75.0834 40.6144 75.2394 42.6315C75.3377 41.4049 75.1695 40.1725 74.745 39.0079C74.3204 37.8433 73.6482 36.7706 72.7686 35.854Z" fill="black"/>
<path opacity="0.1" d="M124.787 17.4472C124.401 18.9405 123.715 20.3606 123.401 21.866C123.212 22.884 123.144 23.9182 123.198 24.9501C123.22 24.3672 123.287 23.7866 123.401 23.213C123.715 21.7076 124.401 20.2874 124.787 18.7942C125.008 17.9701 125.081 17.1173 125.002 16.2709C124.96 16.6672 124.888 17.0603 124.787 17.4472V17.4472Z" fill="black"/>
</g>
<defs>
<linearGradient id="paint0_linear_198_3" x1="92.1691" y1="375.964" x2="92.1691" y2="0.91777" gradientUnits="userSpaceOnUse">
<stop stop-color="#808080" stop-opacity="0.25"/>
<stop offset="0.54" stop-color="#808080" stop-opacity="0.12"/>
<stop offset="1" stop-color="#808080" stop-opacity="0.1"/>
</linearGradient>
</defs>
</svg>
