<svg width="315" height="379" viewBox="0 0 315 379" fill="none" xmlns="http://www.w3.org/2000/svg">
<path d="M43.7728 364.166C43.9019 369.001 44.7096 373.793 46.1719 378.401C46.2044 378.508 46.2403 378.613 46.2754 378.72H55.2279C55.2185 378.624 55.2088 378.517 55.1994 378.401C54.6025 371.52 58.0126 330.138 62.1275 322.976C61.7669 323.557 43.0786 342.302 43.7728 364.166Z" fill="#E6E6E6"/>
<path d="M44.4446 378.401C44.5195 378.508 44.5973 378.615 44.677 378.72H51.3934C51.3425 378.629 51.2835 378.522 51.2151 378.401C50.1057 376.393 46.8217 370.39 43.7735 364.166C40.4989 357.478 37.4922 350.537 37.7454 348.024C37.6669 348.59 35.4001 365.865 44.4446 378.401Z" fill="#E6E6E6"/>
<path d="M138.392 131.301L137.38 112.274L127.17 103.956L121.255 121.574L88.1722 165.819C86.6081 166.07 85.1485 166.765 83.9662 167.822C82.7838 168.879 81.9281 170.254 81.5004 171.783C81.0727 173.313 81.0908 174.933 81.5526 176.452C82.0144 177.972 82.9005 179.327 84.1062 180.357C85.3119 181.387 86.7867 182.049 88.356 182.266C89.9253 182.482 91.5235 182.242 92.9615 181.576C94.3994 180.91 95.617 179.845 96.4702 178.506C97.3233 177.168 97.7762 175.613 97.7754 174.024C97.7754 173.912 97.7631 173.803 97.7587 173.693L138.392 131.301Z" fill="#FFB7B7"/>
<path d="M158.053 371.094L150.23 371.094L146.508 340.834L158.054 340.835L158.053 371.094Z" fill="#FFB7B7"/>
<path d="M160.048 378.698L134.822 378.698V378.378C134.822 375.766 135.857 373.262 137.698 371.416C139.539 369.569 142.037 368.532 144.641 368.532H144.641L160.049 368.533L160.048 378.698Z" fill="#2F2E41"/>
<path d="M194.427 371.094L186.604 371.094L182.881 340.834L194.428 340.835L194.427 371.094Z" fill="#FFB7B7"/>
<path d="M196.422 378.698L171.196 378.698V378.378C171.196 375.766 172.231 373.262 174.072 371.416C175.913 369.569 178.411 368.532 181.015 368.532H181.015L196.422 368.533L196.422 378.698Z" fill="#2F2E41"/>
<path d="M186.158 51.818C189.47 38.1042 192.276 22.6365 186.029 10.006C181.695 1.24223 165.661 -1.70901 156.47 1.44822C147.279 4.60545 140.633 13.1712 137.711 22.5106C134.788 31.85 135.128 41.9139 136.401 51.6229C153.306 51.2972 170.21 50.9716 186.158 51.818Z" fill="#2F2E41"/>
<path d="M167.087 49.3921C176.639 44.1558 180.15 32.1458 174.928 22.567C169.706 12.9882 157.729 9.46784 148.177 14.7041C138.624 19.9404 135.113 31.9503 140.335 41.5292C145.557 51.108 157.534 54.6283 167.087 49.3921Z" fill="#FFB8B8"/>
<path d="M181.729 27.9763C181.792 24.6496 181.187 21.3441 179.951 18.2564C178.714 15.1687 176.871 12.3616 174.532 10.0022C172.192 7.64266 169.403 5.77882 166.331 4.52139C163.259 3.26396 159.966 2.6386 156.648 2.68246C153.33 2.72631 150.055 3.43851 147.017 4.77671C143.979 6.11491 141.24 8.05181 138.964 10.4723C136.687 12.8928 134.918 15.7476 133.764 18.8669C132.609 21.9863 132.091 25.3066 132.241 28.6305C149.113 28.6664 165.985 28.7024 181.729 27.9763Z" fill="#2F2E41"/>
<path d="M125.977 151.135C125.977 151.135 122.77 197.855 124.51 212.107C126.251 226.358 145.205 350.953 145.205 350.953L159.502 350.928L163.747 204.101L180.653 352.355L195.439 350.813L203.826 205.793C203.826 205.793 202.511 151.501 191.821 146.056L125.977 151.135Z" fill="#2F2E41"/>
<path d="M148.404 197.447C137.902 197.444 127.553 194.93 118.213 190.116L118.009 190.011L125.911 137.43L125.398 74.7629C125.384 73.0428 125.712 71.3372 126.363 69.7455C127.013 68.1538 127.973 66.7079 129.187 65.4922C130.4 64.2766 131.843 63.3154 133.431 62.6648C135.019 62.0143 136.72 61.6873 138.436 61.7031L180.84 62.0934C182.718 62.1106 184.571 62.5151 186.286 63.2817C188.001 64.0483 189.54 65.1605 190.808 66.5492C192.076 67.9379 193.045 69.5733 193.656 71.3538C194.266 73.1342 194.505 75.0216 194.356 76.8984L190.388 127.137L203.511 167.913L201.23 170.954C195.081 179.18 187.105 185.856 177.936 190.455C168.767 195.053 158.656 197.447 148.404 197.447Z" fill="#3F3D56"/>
<path d="M121.138 115.767L125.581 70.3014L127.009 68.2636C127.988 66.868 129.231 65.6798 130.669 64.7673C132.106 63.8549 133.709 63.236 135.386 62.9464C137.062 62.6568 138.779 62.702 140.438 63.0795C142.097 63.457 143.666 64.1594 145.053 65.1463L146.277 66.0171L145.069 112.093L121.138 115.767Z" fill="#3F3D56"/>
<path d="M303.214 337.896C314.701 334.714 319.603 352.206 308.145 355.489C296.658 358.671 291.756 341.179 303.214 337.896Z" fill="#3F3D56"/>
<path d="M239.523 360.409C251.01 357.227 255.912 374.72 244.454 378.003C232.967 381.185 228.065 363.693 239.523 360.409Z" fill="#3F3D56"/>
<path d="M213.746 175.923L213.924 175.873L243.512 256.424L247.413 255.324L217.613 174.195C217.548 172.945 217.059 171.754 216.227 170.821C215.394 169.888 214.269 169.268 213.037 169.065C198.24 166.719 192.242 179.89 192.242 179.89L192.301 179.978L222.551 262.332L226.452 261.232L197.092 181.301C206.03 172.436 213.746 175.923 213.746 175.923Z" fill="#3F3D56"/>
<path d="M247.658 364.941C243.436 364.904 239.336 363.517 235.956 360.981C232.575 358.445 230.09 354.892 228.863 350.842C223.216 332.307 209.892 287.898 208.127 275.846C205.828 260.155 218.781 255.692 219.069 255.597C219.418 255.479 224.625 254.018 231.833 251.995C244.085 248.557 262.599 243.361 263.28 243.054C266.149 242.054 269.192 241.658 272.221 241.893C275.249 242.127 278.196 242.987 280.878 244.417C283.642 245.875 286.081 247.881 288.047 250.313C290.014 252.746 291.466 255.554 292.317 258.567L311.375 326.558C312.551 330.726 312.221 335.177 310.444 339.125C308.667 343.073 305.556 346.265 301.66 348.137C286.955 355.222 265.388 364.672 247.947 364.939C247.851 364.94 247.754 364.941 247.658 364.941Z" fill="#A0616A"/>
<path d="M210.6 173.137L201.02 117.019L199.95 98.0801L184.462 103.167L197.525 176.649C196.997 178.079 196.872 179.627 197.163 181.124C197.454 182.62 198.15 184.008 199.174 185.135C200.199 186.261 201.512 187.084 202.972 187.512C204.431 187.941 205.979 187.959 207.448 187.564C208.917 187.17 210.249 186.378 211.299 185.275C212.349 184.173 213.077 182.802 213.402 181.312C213.727 179.823 213.638 178.272 213.144 176.831C212.65 175.389 211.77 174.111 210.6 173.137V173.137Z" fill="#FFB7B7"/>
<path d="M203.64 113.499L179.465 112.181L173.786 66.442L174.338 65.9612C175.7 64.7772 177.281 63.8744 178.991 63.3047C180.701 62.735 182.506 62.5096 184.304 62.6414C186.101 62.7733 187.854 63.2597 189.464 64.0729C191.073 64.8861 192.506 66.0099 193.681 67.38L194.799 68.6842L194.816 68.7667L203.64 113.499Z" fill="#3F3D56"/>
<path d="M302.084 336.921L277.375 253.062L219.274 269.527L218.926 268.296L278.242 251.486L278.421 252.093L303.308 336.559L302.084 336.921Z" fill="#3F3D56"/>
<path d="M81.5167 250.669L81.4969 250.673L50.6976 256.856L24.2028 267.555C23.8603 267.694 23.4939 267.763 23.1247 267.759C22.7554 267.756 22.3905 267.679 22.0508 267.534C21.7111 267.389 21.4031 267.178 21.1446 266.914C20.8861 266.65 20.682 266.337 20.5441 265.993C20.5117 265.912 20.483 265.83 20.4581 265.747L1.10278 200.758C0.899277 200.084 0.955301 199.359 1.25974 198.725C1.56418 198.091 2.09485 197.595 2.74669 197.335L29.7261 186.44L29.7458 186.436L60.5451 180.254L87.0398 169.554C87.7316 169.275 88.5057 169.283 89.1919 169.576C89.878 169.869 90.42 170.423 90.6986 171.117C90.731 171.197 90.7596 171.279 90.7845 171.363L110.14 236.352C110.343 237.025 110.287 237.751 109.983 238.384C109.678 239.018 109.148 239.514 108.496 239.774L81.5167 250.669Z" fill="#E5E5E5"/>
<path d="M48.4667 207.015C41.4039 204.516 34.1039 202.327 26.771 200.508L26.403 200.417L30.126 212.917L49.0938 207.237L48.4667 207.015ZM30.4167 212.378L27.0344 201.021C34.0139 202.763 40.9592 204.842 47.6954 207.203L30.4167 212.378ZM85.4762 223.914C82.1885 222.049 78.8535 220.264 75.4714 218.558C74.5388 218.087 73.6033 217.623 72.665 217.165C66.9378 214.372 61.123 211.824 55.2208 209.524L55.1519 209.497L31.2401 216.658L37.77 238.584L85.919 224.165L85.4762 223.914ZM38.0607 238.044L31.7784 216.95L55.1337 209.956C60.8253 212.175 66.4519 214.634 72.0134 217.331C72.979 217.799 73.9411 218.274 74.8996 218.756C78.2492 220.438 81.556 222.2 84.8201 224.041L38.0607 238.044ZM85.4762 223.914C82.1885 222.049 78.8535 220.264 75.4714 218.558C74.5388 218.087 73.6033 217.623 72.665 217.165C66.9378 214.372 61.123 211.824 55.2208 209.524L55.1519 209.497L31.2401 216.658L37.77 238.584L85.919 224.165L85.4762 223.914ZM38.0607 238.044L31.7784 216.95L55.1337 209.956C60.8253 212.175 66.4519 214.634 72.0134 217.331C72.979 217.799 73.9411 218.274 74.8996 218.756C78.2492 220.438 81.556 222.2 84.8201 224.041L38.0607 238.044ZM48.4667 207.015C41.4039 204.516 34.1039 202.327 26.771 200.508L26.403 200.417L30.126 212.917L49.0938 207.237L48.4667 207.015ZM30.4167 212.378L27.0344 201.021C34.0139 202.763 40.9592 204.842 47.6954 207.203L30.4167 212.378ZM48.4667 207.015C41.4039 204.516 34.1039 202.327 26.771 200.508L26.403 200.417L30.126 212.917L49.0938 207.237L48.4667 207.015ZM30.4167 212.378L27.0344 201.021C34.0139 202.763 40.9592 204.842 47.6954 207.203L30.4167 212.378ZM85.4762 223.914C82.1885 222.049 78.8535 220.264 75.4714 218.558C74.5388 218.087 73.6033 217.623 72.665 217.165C66.9378 214.372 61.123 211.824 55.2208 209.524L55.1519 209.497L31.2401 216.658L37.77 238.584L85.919 224.165L85.4762 223.914ZM38.0607 238.044L31.7784 216.95L55.1337 209.956C60.8253 212.175 66.4519 214.634 72.0134 217.331C72.979 217.799 73.9411 218.274 74.8996 218.756C78.2492 220.438 81.556 222.2 84.8201 224.041L38.0607 238.044ZM18.3682 248.468L18.4919 248.884L34.8628 243.981L36.6578 250.008L20.2869 254.911L20.4107 255.327L37.1961 250.3L35.1536 243.442L18.3682 248.468ZM42.0408 252.924L43.2951 257.135L43.6981 256.972L42.5791 253.215L106.413 234.099L106.289 233.683L42.0408 252.924ZM103.256 223.5L103.132 223.084L38.8841 242.324L40.9266 249.183L105.175 229.942L105.051 229.527L41.2174 248.643L39.4224 242.616L103.256 223.5ZM55.5409 204.854C45.7568 201.084 35.7063 198.05 25.4728 195.778L24.2194 191.569L23.8164 191.732L25.0795 195.973L25.5035 196.229C35.6973 198.499 45.7086 201.526 55.4548 205.285L55.5238 205.312L94.3743 193.677L94.2505 193.261L55.5409 204.854ZM25.8571 213.743L9.48621 218.646L9.61002 219.061L26.3954 214.035L20.1892 193.196L19.7862 193.359L25.8571 213.743ZM95.4885 197.418L61.3342 207.646L61.8904 207.88C67.1289 210.09 72.3536 212.534 77.5647 215.21C78.3055 215.591 79.0456 215.976 79.785 216.367C83.4635 218.304 87.1137 220.349 90.7353 222.502L91.1374 222.602L102.018 219.343L101.895 218.928L91.0397 222.178C87.4565 220.046 83.8401 218.017 80.1902 216.09C79.4602 215.704 78.7293 215.323 77.9974 214.946C72.8965 212.319 67.7681 209.909 62.6124 207.716L95.6122 197.834L95.4885 197.418ZM21.5248 259.067L21.6486 259.483L38.0195 254.58L39.2648 258.762L39.6679 258.599L38.3102 254.041L21.5248 259.067ZM10.7241 222.802L10.8479 223.218L27.2188 218.315L33.5012 239.409L17.1303 244.312L17.2541 244.728L34.0395 239.701L27.5096 217.775L10.7241 222.802ZM48.4667 207.015C41.4039 204.516 34.1039 202.327 26.771 200.508L26.403 200.417L30.126 212.917L49.0938 207.237L48.4667 207.015ZM30.4167 212.378L27.0344 201.021C34.0139 202.763 40.9592 204.842 47.6954 207.203L30.4167 212.378ZM85.4762 223.914C82.1885 222.049 78.8535 220.264 75.4714 218.558C74.5388 218.087 73.6033 217.623 72.665 217.165C66.9378 214.372 61.123 211.824 55.2208 209.524L55.1519 209.497L31.2401 216.658L37.77 238.584L85.919 224.165L85.4762 223.914ZM38.0607 238.044L31.7784 216.95L55.1337 209.956C60.8253 212.175 66.4519 214.634 72.0134 217.331C72.979 217.799 73.9411 218.274 74.8996 218.756C78.2492 220.438 81.556 222.2 84.8201 224.041L38.0607 238.044ZM48.4667 207.015C41.4039 204.516 34.1039 202.327 26.771 200.508L26.403 200.417L30.126 212.917L49.0938 207.237L48.4667 207.015ZM30.4167 212.378L27.0344 201.021C34.0139 202.763 40.9592 204.842 47.6954 207.203L30.4167 212.378ZM85.4762 223.914C82.1885 222.049 78.8535 220.264 75.4714 218.558C74.5388 218.087 73.6033 217.623 72.665 217.165C66.9378 214.372 61.123 211.824 55.2208 209.524L55.1519 209.497L31.2401 216.658L37.77 238.584L85.919 224.165L85.4762 223.914ZM38.0607 238.044L31.7784 216.95L55.1337 209.956C60.8253 212.175 66.4519 214.634 72.0134 217.331C72.979 217.799 73.9411 218.274 74.8996 218.756C78.2492 220.438 81.556 222.2 84.8201 224.041L38.0607 238.044Z" fill="white"/>
<path d="M53.966 208.973C55.5336 214.236 49.5217 228.808 49.5217 228.808C49.5217 228.808 36.5257 219.929 34.9581 214.665C34.2054 212.138 34.4847 209.414 35.7348 207.093C36.9848 204.772 39.1032 203.044 41.6238 202.289C44.1444 201.534 46.8608 201.814 49.1754 203.068C51.4901 204.321 53.2133 206.445 53.9661 208.973H53.966Z" fill="#A0616A"/>
<path d="M48.6835 210.104C48.9401 210.965 48.9362 211.884 48.6722 212.743C48.4081 213.603 47.8959 214.364 47.2002 214.932C46.5045 215.499 45.6567 215.847 44.7638 215.932C43.871 216.016 42.9732 215.833 42.1842 215.405C41.3951 214.978 40.7501 214.326 40.3307 213.531C39.9114 212.736 39.7366 211.834 39.8283 210.94C39.92 210.045 40.2743 209.198 40.8462 208.505C41.4181 207.812 42.182 207.305 43.0413 207.048C43.6118 206.877 44.2105 206.82 44.8029 206.881C45.3953 206.942 45.9699 207.12 46.4939 207.403C47.0179 207.687 47.481 208.072 47.8567 208.535C48.2324 208.998 48.5133 209.531 48.6835 210.104Z" fill="white"/>
<path d="M50.8051 235.798C52.2817 235.798 53.4788 234.598 53.4788 233.117C53.4788 231.636 52.2817 230.436 50.8051 230.436C49.3284 230.436 48.1313 231.636 48.1313 233.117C48.1313 234.598 49.3284 235.798 50.8051 235.798Z" fill="#A0616A"/>
<path d="M79.98 197.865L61.3981 203.43C61.3749 203.437 61.3511 203.442 61.327 203.445L65.5692 185.549C65.5945 185.437 65.6488 185.335 65.7265 185.252C65.8042 185.169 65.9026 185.108 66.0115 185.075C66.1204 185.042 66.236 185.039 66.3465 185.066C66.457 185.093 66.5584 185.149 66.6403 185.228L75.5893 193.705L76.0179 194.111L79.98 197.865Z" fill="white"/>
<path opacity="0.2" d="M79.9799 197.865L73.6355 199.765L75.3993 194.296L75.5257 193.902L75.5895 193.705L76.0177 194.111L79.9799 197.865Z" fill="black"/>
<path d="M90.3263 194.767L74.2545 199.58L76.0179 194.111L76.1447 193.717L78.4424 186.59C78.4873 186.478 78.5551 186.377 78.6415 186.293C78.7278 186.209 78.8308 186.145 78.9437 186.103C79.0566 186.062 79.1769 186.045 79.2968 186.053C79.4167 186.062 79.5335 186.095 79.6396 186.152C79.6675 186.169 79.6943 186.187 79.7198 186.207L90.3263 194.767Z" fill="white"/>
</svg>
