<svg width="294" height="360" viewBox="0 0 294 360" fill="none" xmlns="http://www.w3.org/2000/svg">
<path opacity="0.1" d="M111.443 93H92.8531V110.334H111.443V93Z" fill="#78D2CF"/>
<path opacity="0.1" d="M111.443 133.263H92.8531V150.597H111.443V133.263Z" fill="#78D2CF"/>
<path opacity="0.1" d="M111.443 173.526H92.8531V190.86H111.443V173.526Z" fill="#78D2CF"/>
<path opacity="0.1" d="M0.00732422 107.128V117.039H63.6214V107.128H0.00732422ZM6.34127 116.417H1.11201V107.738H6.34127V116.417ZM12.6752 116.417H7.44596V107.738H12.6752V116.417ZM18.9961 116.417H13.7668V107.738H18.9961V116.417ZM25.33 116.417H20.1008V107.738H25.33V116.417ZM31.6575 116.417H26.4282V107.738H31.6575V116.417ZM37.9914 116.417H32.7621V107.738H37.9914V116.417ZM44.3254 116.417H39.0961V107.738H44.3254V116.417ZM50.6528 116.417H45.4235V107.738H50.6528V116.417ZM56.9802 116.417H51.7509V107.738H56.9802V116.417ZM63.3141 116.417H58.0849V107.738H63.3141V116.417Z" fill="#78D2CF"/>
<path opacity="0.1" d="M0.314697 135.982C0.563087 136.92 0.857234 137.847 1.15792 138.767V136.609H6.38718V145.27H3.58299C3.66143 145.477 3.7464 145.691 3.83792 145.88H63.6477V135.982H0.314697ZM12.7342 145.27H7.50494V136.609H12.7342V145.27ZM19.0551 145.27H13.8258V136.609H19.0551V145.27ZM25.389 145.27H20.1598V136.609H25.389V145.27ZM31.7164 145.27H26.4872V136.609H31.7164V145.27ZM38.0504 145.27H32.8211V136.609H38.0504V145.27ZM44.3843 145.27H39.1551V136.609H44.3843V145.27ZM50.7118 145.27H45.4825V136.609H50.7118V145.27ZM57.0392 145.27H51.8099V136.609H57.0392V145.27ZM63.3731 145.27H58.1439V136.609H63.3731V145.27Z" fill="#78D2CF"/>
<path opacity="0.1" d="M15.048 164.847C15.218 165.042 15.3749 165.262 15.5383 165.457H18.9961V169.62L20.1139 170.839V165.433H25.3431V174.173H23.1926C23.4018 174.374 23.6044 174.587 23.8463 174.782H63.6083V164.847H15.048ZM31.6902 174.173H26.4609V165.469H31.6902V174.173ZM38.0241 174.173H32.7949V165.469H38.0241V174.173ZM44.3581 174.173H39.1288V165.469H44.3581V174.173ZM50.6855 174.173H45.4562V165.469H50.6855V174.173ZM57.0129 174.173H51.7836V165.469H57.0129V174.173ZM63.3468 174.173H58.1176V165.469H63.3468V174.173Z" fill="#78D2CF"/>
<path opacity="0.1" d="M49.9468 193.713C50.5482 194.03 51.1561 194.322 51.764 194.633V194.329H56.9933V197.077C57.3724 197.23 57.7319 197.394 58.1045 197.553V194.329H63.3338V199.607C63.4332 199.649 63.5359 199.683 63.641 199.71V193.713H49.9468Z" fill="#78D2CF"/>
<path d="M74.4866 155.801C87.4814 164.559 92.8937 178.267 92.8937 178.267C92.8937 178.267 77.2059 177.767 64.2438 169.009C51.2818 160.25 45.8368 146.537 45.8368 146.537C45.8368 146.537 61.4984 147.036 74.4866 155.801Z" fill="#78D2CF"/>
<path opacity="0.1" d="M219.934 359.213C255.111 359.213 283.627 354.943 283.627 349.675C283.627 344.407 255.111 340.136 219.934 340.136C184.758 340.136 156.242 344.407 156.242 349.675C156.242 354.943 184.758 359.213 219.934 359.213Z" fill="#78D2CF"/>
<path d="M293.261 97.4537C293.245 97.3932 293.211 97.3381 293.163 97.2952C292.189 96.3992 279.77 80.0221 279.77 80.0221C279.77 80.0221 279.116 78.1936 278.057 75.8166C278.397 75.4068 278.651 74.9418 278.809 74.4452C278.866 74.2348 278.907 74.021 278.933 73.8053C278.933 73.7382 278.985 73.6834 279.005 73.6163C279.232 72.7897 279.209 71.9206 278.939 71.1052C278.867 71.3144 278.777 71.5182 278.671 71.7147C278.426 71.0047 278.097 70.322 277.691 69.679C276.044 67.0338 273.691 64.803 271.958 62.2249C269.335 58.2191 268.293 53.4858 269.01 48.8404C269.01 49.0781 269.01 49.3219 269.01 49.5596C269.076 48.6382 269.207 47.722 269.403 46.8168C269.676 45.7866 270.041 44.7794 270.494 43.8059C272.05 40.4842 274.566 37.5891 276.096 34.2551C276.609 33.1306 276.999 31.9605 277.26 30.7628C277.799 28.7623 277.995 26.695 277.841 24.6373C277.841 25.1249 277.756 25.6125 277.678 26.094C277.513 21.1469 275.37 16.436 271.671 12.8863C266.33 7.8823 258.663 5.93802 251.329 4.91407C248.247 4.57877 245.304 3.53127 242.766 1.8666C239.949 0.166106 236.308 -0.242259 233.013 0.129533C229.227 0.511247 225.709 2.13323 223.084 4.70685C219.6 8.27849 218.09 13.3373 214.025 16.3482C211.56 18.1767 208.436 19.03 205.566 20.2733C202.697 21.5167 199.984 23.3208 199.062 25.9904C199.062 25.9904 199.062 25.9538 199.062 25.9355V26.0879L199.023 26.1854C198.069 29.3426 199.912 32.5547 200.873 35.7057C201.873 38.9665 201.939 42.4102 201.991 45.7807C202.063 49.9009 202.128 54.0272 202.056 58.1534C202.023 59.7747 201.965 61.4142 201.834 63.0294C200.287 63.4655 198.784 64.0285 197.343 64.7116C195.879 65.6015 190.401 71.1174 190.401 71.1174L179.688 109.284L179.832 109.436L179.688 109.954L180.231 109.839C181.747 111.362 186.277 115.702 191.166 118.408L191.624 125.893C191.624 125.893 192.173 133.402 199.579 136.504C199.749 139.107 200.278 149.675 197.827 153.862C196.13 156.921 195.331 160.345 195.513 163.785C195.513 163.785 196.369 170.136 195.395 173.476C194.826 175.708 194.784 178.029 195.271 180.278V180.278C195.271 180.278 195.271 181.015 195.271 182.283C195.271 189.042 195.356 210.704 195.271 213.154C195.147 216.049 195.271 258.866 195.271 258.866C195.271 258.866 194.663 280.266 192.715 286.062C190.767 291.858 191.258 311.051 191.258 311.051C191.258 311.051 190.035 333.913 194.356 338.424C194.356 338.625 194.317 338.832 194.31 339.033C194.31 339.125 194.31 339.228 194.31 339.32C194.258 341.057 194.618 342.903 196.219 343.47C199.487 344.64 203.808 348.151 204.625 349.157C205.442 350.162 210.194 352.667 216.391 351.997C220.273 351.59 224.179 351.423 228.085 351.497V351.497C228.085 351.497 230.53 351.083 229.739 348.249C229.229 346.481 227.32 343.763 225.96 341.977C226.209 342.038 226.451 342.087 226.679 342.129L226.915 342.172H227.098C227.198 342.178 227.298 342.178 227.398 342.172H227.529C227.651 342.181 227.773 342.181 227.895 342.172V342.172C229.536 342.026 235.654 344.683 236.746 346.438C237.837 348.194 241.687 349.529 244.59 349.864C246.315 350.059 250.669 349.73 254.323 349.291C256.163 349.114 257.985 348.804 259.774 348.364C260.637 348.06 260.82 347.085 260.572 345.987C260.278 344.594 259.48 343.337 258.31 342.428C257.251 341.727 255.852 339.88 254.819 338.369L254.545 337.96C256.369 336.339 259.663 331.037 260.663 329.939C261.879 328.605 258.702 279.79 258.702 279.79V255.319L263.572 232.158L266.978 219.901L269.899 201.397C269.899 201.397 275.011 179.784 273.436 177.663C273.436 177.621 272.128 155.368 270.756 150.023C270.161 147.639 270.311 142.276 270.664 137.059C271.033 136.717 271.29 136.285 271.406 135.812C271.522 135.34 271.491 134.846 271.318 134.389C271.22 134.077 271.093 133.773 270.939 133.481C270.939 133.39 270.939 133.292 270.939 133.201C273.762 131.989 276.713 131.054 279.743 130.409C284.613 129.519 283.397 127.179 283.397 127.179C283.397 127.179 284.496 125.174 285.221 123.948C285.947 122.723 285.345 111.911 285.221 111.021C285.175 110.661 284.875 108.674 284.528 106.419C286.09 105.383 288.123 104.097 290.339 102.878C294.555 100.55 293.608 98.0937 293.261 97.4537ZM229.726 251.979C229.726 251.979 226.072 260.67 227.536 262.895C229 265.12 227.294 273.378 227.294 273.378L226.072 285.635C226.072 285.635 222.666 308.369 223.882 313.715C224.836 317.908 225.189 330.433 225.3 335.656C225.217 335.687 225.136 335.724 225.058 335.766L224.895 335.845C225.457 333.791 225.222 329.635 222.431 321.272L222.195 286.732C222.195 286.732 221.764 246.835 225.143 242.373C228.523 237.912 229.719 230.336 229.719 230.336C229.719 230.336 228.987 241.264 228.51 244.159C228.033 247.054 229.726 251.979 229.726 251.979ZM222.921 337.832C222.888 337.906 222.849 337.979 222.823 338.046L222.64 337.826C222.733 337.835 222.827 337.837 222.921 337.832V337.832Z" fill="url(#paint0_linear_198_2)"/>
<path d="M260.186 351.522C258.297 352.198 248.054 353.35 245.191 353.027C242.328 352.704 238.537 351.351 237.458 349.583C236.38 347.816 230.333 345.146 228.712 345.317C228.048 345.336 227.385 345.249 226.751 345.061C225.633 344.745 224.541 344.354 223.483 343.891C223.335 343.122 223.36 342.334 223.555 341.575C223.593 341.422 223.641 341.271 223.699 341.124C224.08 340.124 224.87 339.305 225.895 338.844L226.13 338.74C226.584 338.558 227.057 338.423 227.542 338.338C232.68 337.418 253.878 339.265 253.878 339.265C253.878 339.265 254.473 340.258 255.29 341.489C256.31 343.013 257.696 344.872 258.741 345.573C259.9 346.496 260.686 347.761 260.97 349.157C261.219 350.236 261.036 351.223 260.186 351.522Z" fill="white"/>
<path opacity="0.1" d="M260.186 351.522C258.297 352.198 248.061 353.35 245.198 353.027C242.335 352.704 238.543 351.345 237.458 349.583C236.373 347.822 230.34 345.146 228.719 345.317C227.098 345.488 223.49 343.891 223.49 343.891C223.49 343.891 222.927 341.453 224.562 339.789L227.83 341.952C227.83 341.952 236.576 344.482 238.197 346.828C239.818 349.175 242.773 350.485 247.041 350.723C250.231 350.918 257.558 349.76 260.99 349.181C261.219 350.236 261.042 351.223 260.186 351.522Z" fill="black"/>
<path d="M228.896 354.63C225.04 354.56 221.184 354.729 217.352 355.136C211.214 355.806 206.528 353.307 205.711 352.277C204.894 351.247 200.664 347.767 197.416 346.548C195.827 345.975 195.455 344.11 195.527 342.367C195.527 342.276 195.527 342.172 195.527 342.081C195.587 340.976 195.762 339.88 196.05 338.808L221.483 338.302L223.686 341.087L224.026 341.514L225.366 343.214C225.366 343.214 225.974 343.958 226.772 345.043C228.118 346.871 230.001 349.571 230.504 351.357C231.308 354.216 228.896 354.63 228.896 354.63Z" fill="white"/>
<path opacity="0.1" d="M228.896 354.63C225.04 354.56 221.184 354.729 217.352 355.136C211.221 355.806 206.528 353.307 205.717 352.277C204.907 351.247 200.664 347.737 197.416 346.56C195.827 345.987 195.455 344.122 195.527 342.379C197.344 342.775 201.161 343.787 202.658 345.549C204.619 347.901 208.129 351.857 213.117 352.107C217.143 352.308 226.948 351.637 230.543 351.369C231.314 354.216 228.896 354.63 228.896 354.63Z" fill="black"/>
<path opacity="0.1" d="M225.869 338.82C225.575 340.855 224.666 341.404 224.013 341.526C223.853 341.555 223.689 341.555 223.529 341.526C223.443 341.52 223.358 341.508 223.274 341.489C223.274 341.489 200.435 346.195 195.82 342.385C195.703 342.287 195.594 342.181 195.494 342.068C195.554 340.964 195.729 339.868 196.017 338.795L221.45 338.289L223.653 341.075C224.035 340.075 224.824 339.256 225.85 338.795L225.869 338.82Z" fill="black"/>
<path opacity="0.1" d="M255.284 341.465C254.774 341.989 254.349 342.288 254.081 342.184C252.879 341.733 243.022 340.167 239.891 341.514C236.76 342.861 226.164 341.733 226.164 341.733C226.164 341.733 226.164 340.563 226.105 338.686C226.558 338.503 227.032 338.368 227.517 338.283C232.655 337.363 253.853 339.21 253.853 339.21C253.853 339.21 254.474 340.234 255.284 341.465Z" fill="black"/>
<path d="M270.201 203.597L267.311 222.211L263.952 234.547L259.141 257.867V282.551C259.141 282.551 262.265 331.664 261.062 333.005C259.86 334.346 255.291 341.983 254.088 341.538C252.885 341.093 243.028 339.521 239.897 340.862C236.766 342.202 226.17 341.087 226.17 341.087C226.17 341.087 225.928 322.028 224.726 316.646C223.523 311.264 226.889 288.39 226.889 288.39L228.092 276.06C228.092 276.06 229.778 267.759 228.334 265.516C226.889 263.273 230.497 254.545 230.497 254.545C230.497 254.545 228.817 249.602 229.301 246.688C229.785 243.775 230.497 232.786 230.497 232.786C230.497 232.786 229.301 240.417 225.961 244.897C222.621 249.376 223.046 289.524 223.046 289.524L223.281 324.265C229.301 342.66 223.281 340.862 223.281 340.862C223.281 340.862 200.442 345.573 195.827 341.757C191.212 337.942 192.533 313.928 192.533 313.928C192.533 313.928 192.056 294.644 193.977 288.817C195.899 282.99 196.507 261.457 196.507 261.457C196.507 261.457 196.383 218.396 196.507 215.488C196.599 213.05 196.507 191.224 196.507 184.404C196.507 183.136 196.507 182.387 196.507 182.387L199.265 175.999L231.948 172.184H247.584C247.584 172.184 271.116 177.34 273.547 179.565C273.599 179.602 273.643 179.647 273.678 179.699C275.253 181.85 270.201 203.597 270.201 203.597Z" fill="#78D2CF"/>
<path opacity="0.1" d="M230.517 301.372C230.517 301.372 237.707 317.518 241.099 318.639C244.492 319.761 230.517 301.372 230.517 301.372Z" fill="black"/>
<path opacity="0.1" d="M233.177 325.143C233.177 325.143 257.454 326.264 257.212 328.733C256.97 331.201 233.177 325.143 233.177 325.143Z" fill="black"/>
<path opacity="0.1" d="M200.697 318.688C201.658 319.535 219.215 321.126 217.77 322.674C216.326 324.222 202.141 327.233 202.141 327.233L200.697 318.688Z" fill="black"/>
<path opacity="0.1" d="M197.814 290.834C197.814 291.505 201.423 312.362 202.39 313.258C203.357 314.154 211.286 315.049 211.286 315.049L197.814 290.834Z" fill="black"/>
<path d="M223.993 5.74904C220.548 9.33896 219.058 14.4282 215.045 17.4635C212.607 19.292 209.521 20.1636 206.684 21.407C203.848 22.6503 201.037 24.5459 200.194 27.3617C199.252 30.5311 201.069 33.7675 202.024 36.9369C203.011 40.216 203.07 43.6413 203.128 47.0728C203.194 51.2234 203.266 55.3741 203.187 59.5248C203.07 65.9915 202.494 72.7569 198.814 78.2363C212.103 82.1797 226.235 82.7161 240.171 83.2219C242.849 83.4001 245.54 83.3368 248.205 83.033C250.514 82.6039 252.798 82.0648 255.049 81.4178C259.498 80.3202 264.082 79.7731 268.684 79.7905C270.691 79.7905 272.737 79.9063 274.671 79.4187C276.606 78.9311 278.469 77.6816 278.992 75.8775C279.456 74.2563 278.776 72.5314 277.887 71.0747C276.266 68.4173 273.965 66.1987 272.227 63.5779C270.452 60.8096 269.399 57.6913 269.152 54.4741C268.906 51.2569 269.473 48.0308 270.808 45.0554C272.351 41.7092 274.835 38.7959 276.351 35.4436C277.905 31.8444 278.318 27.9052 277.541 24.0936C276.765 20.2821 274.832 16.7583 271.972 13.9407C266.697 8.90622 259.127 6.95584 251.885 5.9197C248.835 5.58382 245.926 4.53562 243.427 2.87222C240.648 1.16563 237.047 0.751169 233.792 1.12906C230.036 1.52142 226.558 3.16144 223.993 5.74904Z" fill="#3F3D56"/>
<g opacity="0.1">
<path opacity="0.1" d="M271.011 41.5386C269.678 44.4756 269.107 47.6642 269.344 50.8456C269.49 48.5706 270.054 46.3359 271.011 44.2387C272.547 40.8925 275.031 37.9791 276.547 34.6269C277.787 31.8278 278.308 28.7973 278.07 25.777C277.935 27.894 277.421 29.9749 276.547 31.9329C275.031 35.2852 272.547 38.1925 271.011 41.5386Z" fill="black"/>
<path opacity="0.1" d="M203.325 46.2439C203.364 48.6331 203.403 51.0285 203.41 53.4177C203.41 50.1264 203.377 46.8412 203.325 43.5561C203.272 40.149 203.207 36.6992 202.22 33.4141C201.566 31.3296 200.599 29.2146 200.259 27.1119C199.677 30.0984 201.331 33.1276 202.22 36.108C203.207 39.3627 203.272 42.8369 203.325 46.2439Z" fill="black"/>
<path opacity="0.1" d="M274.893 75.9323C272.932 76.426 270.919 76.3163 268.912 76.3041C264.314 76.2768 259.732 76.8137 255.284 77.901C253.033 78.5452 250.749 79.0822 248.44 79.51C245.773 79.8188 243.08 79.8841 240.4 79.7051C226.934 79.2114 213.28 78.6811 200.383 75.0912C200 75.8882 199.563 76.6617 199.076 77.4073C212.364 81.3446 226.497 81.887 240.426 82.3929C243.106 82.572 245.799 82.5067 248.466 82.1979C250.767 81.7742 253.042 81.2392 255.284 80.5949C259.722 79.5037 264.296 78.9606 268.886 78.9798C270.893 78.9798 272.932 79.0956 274.867 78.6019C276.802 78.1082 278.665 76.8709 279.188 75.0668C279.408 74.2312 279.386 73.356 279.123 72.5313C278.541 74.2379 276.743 75.4264 274.893 75.9323Z" fill="black"/>
</g>
<path d="M255.532 68.7099C255.048 69.7217 253.009 78.4618 252.525 79.3578C252.042 80.2537 249.401 94.5952 249.159 95.3997C248.917 96.2042 231.752 92.0353 231.752 92.0353L221.418 83.9595L210.796 74.1039C210.796 74.1039 210.482 65.2114 218.306 62.359C218.838 62.1643 219.384 62.0054 219.94 61.8836C229.432 59.7564 228.477 32.8472 228.477 32.8472L247.956 40.6914C247.956 40.6914 244.348 56.392 244.472 59.4212C244.505 60.4391 245.361 61.0729 246.479 61.4569C248.207 61.9154 250.006 62.0967 251.8 61.9933C251.8 61.9933 256.016 67.7042 255.532 68.7099Z" fill="#FBBEBE"/>
<path d="M290.405 98.1972L293.17 98.8738C293.17 98.8738 295.216 101.775 290.405 104.475C287.35 106.205 284.418 108.117 281.626 110.198L267.409 114.233L264.67 106.218L277.9 96.8563L290.405 98.1972Z" fill="#78D2CF"/>
<path opacity="0.1" d="M290.405 98.1972L293.17 98.8738C293.17 98.8738 295.216 101.775 290.405 104.475C287.35 106.205 284.418 108.117 281.626 110.198L267.409 114.233L264.67 106.218L277.9 96.8563L290.405 98.1972Z" fill="black"/>
<path d="M186.65 105.938L181.12 110.984C181.12 110.984 191.095 121.748 198.769 122.419C206.443 123.089 211.391 114.233 211.391 114.233L204.75 104.481L186.65 105.938Z" fill="#78D2CF"/>
<path opacity="0.1" d="M186.65 105.938L181.12 110.984C181.12 110.984 191.095 121.748 198.769 122.419C206.443 123.089 211.391 114.233 211.391 114.233L204.75 104.481L186.65 105.938Z" fill="black"/>
<path opacity="0.1" d="M239.178 50.4311C249.803 50.4311 258.415 42.4002 258.415 32.4937C258.415 22.5871 249.803 14.5562 239.178 14.5562C228.554 14.5562 219.941 22.5871 219.941 32.4937C219.941 42.4002 228.554 50.4311 239.178 50.4311Z" fill="black"/>
<path d="M239.178 49.0841C249.803 49.0841 258.415 41.0532 258.415 31.1467C258.415 21.2401 249.803 13.2092 239.178 13.2092C228.554 13.2092 219.941 21.2401 219.941 31.1467C219.941 41.0532 228.554 49.0841 239.178 49.0841Z" fill="#FBBEBE"/>
<path opacity="0.1" d="M273.691 181.734C269.31 182.202 264.996 183.103 260.82 184.422C253.63 186.653 197.285 184.459 196.5 184.422C196.5 183.155 196.5 182.405 196.5 182.405L199.259 176.017L231.942 172.202H247.577C247.577 172.202 271.109 177.358 273.54 179.583C273.638 180.924 273.691 181.734 273.691 181.734Z" fill="black"/>
<path opacity="0.1" d="M255.532 68.7098C255.048 69.7216 253.009 78.4618 252.525 79.3577C252.042 80.2537 249.401 94.5951 249.159 95.3996C248.917 96.2042 231.752 92.0352 231.752 92.0352L221.418 83.9594L210.796 74.1039C210.796 74.1039 210.482 65.2113 218.306 62.3589L237.733 83.1853L246.479 61.4568C248.207 61.9153 250.006 62.0967 251.8 61.9932C251.8 61.9932 256.016 67.7042 255.532 68.7098Z" fill="black"/>
<path d="M237.733 83.8559L217.849 62.5236C216.685 61.8308 215.355 61.4186 213.978 61.3239C212.601 61.2292 211.22 61.455 209.959 61.9812C205.508 63.7792 199.978 65.2359 198.534 66.1318C197.089 67.0278 191.677 72.5742 191.677 72.5742L207.796 111.893L200.697 137.79C200.697 137.79 201.782 151.022 199.017 155.843C197.334 158.926 196.545 162.366 196.729 165.821C196.729 165.821 197.573 172.214 196.612 175.573C196.05 177.818 196.008 180.149 196.488 182.411C196.488 182.411 253.611 184.654 260.821 182.411C264.995 181.088 269.31 180.187 273.691 179.723C273.691 179.723 272.384 157.294 271.077 151.912C269.769 146.53 272.162 126.015 272.162 126.015L270.599 104.036L279.973 81.485C279.973 81.485 274.894 67.0278 269.599 65.5711C269.599 65.5711 259.984 63.4379 257.938 62.4322C255.892 61.4265 249.878 60.5245 249.878 60.5245L246.721 61.5119L237.733 83.8559Z" fill="#78D2CF"/>
<path opacity="0.1" d="M265.476 103.294L223.634 100.641C222.575 100.574 221.658 101.32 221.586 102.307L217.094 163.907C217.022 164.894 217.822 165.749 218.881 165.816L260.723 168.469C261.782 168.536 262.699 167.79 262.771 166.803L267.263 105.204C267.335 104.216 266.535 103.361 265.476 103.294Z" fill="black"/>
<path d="M266.917 101.956L225.075 99.3033C224.016 99.2362 223.099 99.9822 223.027 100.97L218.535 162.569C218.463 163.557 219.263 164.411 220.322 164.478L262.164 167.131C263.223 167.199 264.14 166.453 264.212 165.465L268.704 103.866C268.776 102.878 267.976 102.023 266.917 101.956Z" fill="#3F3D56"/>
<path d="M265.536 106.785L225.742 104.262L221.652 160.34L261.446 162.863L265.536 106.785Z" fill="white"/>
<path opacity="0.1" d="M261.968 121.098L229.462 118.977L228.827 127.424L261.334 129.546L261.968 121.098Z" fill="black"/>
<path opacity="0.1" d="M260.792 154.669L255.633 154.342L255.312 158.744L260.471 159.071L260.792 154.669Z" fill="black"/>
<path opacity="0.1" d="M255.703 144.043L229.298 142.369L228.977 146.772L255.382 148.446L255.703 144.043Z" fill="black"/>
<path d="M260.611 104.688L233.116 102.945L232.622 109.713L260.117 111.456L260.611 104.688Z" fill="#3F3D56"/>
<path opacity="0.1" d="M260.611 104.688L233.116 102.945L232.622 109.713L260.117 111.456L260.611 104.688Z" fill="black"/>
<path opacity="0.1" d="M240.138 180.497C240.138 180.497 239.897 213.69 230.517 232.749C230.517 232.749 241.825 207.632 241.825 206.626C241.825 205.621 248.074 195.076 246.4 191.938C244.727 188.799 240.138 180.497 240.138 180.497Z" fill="black"/>
<path opacity="0.1" d="M240.648 26.6609C240.289 23.723 241.06 20.7616 242.825 18.3047C242.615 20.7673 243.362 23.2181 244.929 25.2098C246.496 27.2015 248.78 28.6013 251.362 29.1538C251.141 28.9754 250.984 28.7391 250.911 28.4758C250.837 28.2125 250.851 27.9346 250.95 27.6788C252.29 29.0928 253.316 30.7689 254.833 32.0123C256.349 33.2557 258.624 33.9992 260.408 33.1155C262.833 31.8965 262.86 28.6844 262.232 26.1855C260.885 20.8637 258.123 15.944 254.199 11.8807C253.22 10.6524 251.949 9.65223 250.486 8.95854C249.023 8.26486 247.408 7.89651 245.766 7.88237C242.054 7.61419 238.197 7.91893 234.87 9.47314C232.998 10.4258 231.244 11.5684 229.641 12.8802L220.489 19.8407C219.609 20.4322 218.855 21.1723 218.267 22.0226C217.874 22.7336 217.639 23.5108 217.574 24.3083C217.34 26.5878 217.793 28.8831 218.88 30.9362C219.968 32.9893 221.648 34.7191 223.732 35.9313C223.688 34.1296 224.219 32.3564 225.258 30.837C226.298 29.3177 227.798 28.1207 229.569 27.3984C229.846 27.6147 230.071 27.8837 230.227 28.1875C230.384 28.4913 230.469 28.8228 230.477 29.1599L232.406 25.9539C232.692 25.3705 233.144 24.8711 233.713 24.5094C234.903 23.8999 236.386 24.6191 237.4 25.4785C238.413 26.3379 239.4 27.4106 240.759 27.5447L240.812 22.7723" fill="black"/>
<path d="M240.649 25.9903C240.289 23.0504 241.06 20.0867 242.826 17.628C242.237 22.504 246.179 27.5384 251.369 28.477C251.148 28.3002 250.991 28.0649 250.917 27.8025C250.844 27.5401 250.858 27.263 250.957 27.0081C252.297 28.4222 253.323 30.0922 254.84 31.3416C256.356 32.5911 258.631 33.3286 260.415 32.4387C262.841 31.2197 262.867 28.0077 262.239 25.5149C260.893 20.1931 258.13 15.2734 254.206 11.21C252.988 9.82613 251.454 8.71402 249.715 7.95531C248.456 7.52122 247.134 7.27042 245.793 7.21173C242.08 6.94355 238.224 7.24221 234.897 8.79642C233.026 9.75332 231.272 10.8978 229.667 12.2096L220.516 19.17C219.634 19.76 218.88 20.5004 218.294 21.352C217.9 22.0626 217.665 22.84 217.601 23.6376C217.368 25.9163 217.82 28.2105 218.908 30.2626C219.996 32.3147 221.675 34.0434 223.758 35.2546C223.716 33.4532 224.248 31.6807 225.287 30.1616C226.326 28.6426 227.826 27.4453 229.596 26.7217C229.872 26.9387 230.096 27.2079 230.252 27.5115C230.409 27.8152 230.495 28.1463 230.504 28.4831L232.426 25.2893C232.711 24.705 233.163 24.2052 233.733 23.8448C234.923 23.2354 236.407 23.9546 237.42 24.8139C238.433 25.6733 239.42 26.7399 240.78 26.8801L240.832 22.1017" fill="#3F3D56"/>
<path d="M249.761 139.131C248.081 138.339 220.3 142.379 220.3 142.379C220.3 142.379 215.725 141.161 204.665 139.466C193.605 137.772 192.899 127.691 192.899 127.691L191.69 107.51L195.422 104.463L211.41 114.215C211.41 114.215 211.659 119.146 211.41 120.035C211.254 120.645 210.835 121.37 210.874 121.864C210.887 121.998 210.946 122.124 211.043 122.223C211.14 122.322 211.269 122.389 211.41 122.412C212.496 122.668 227.281 124.899 227.281 124.899C227.281 124.899 261.553 122.711 270.096 133.475C270.773 134.265 271.285 135.166 271.606 136.132C273.724 143.489 251.284 139.832 249.761 139.131Z" fill="#FBBEBE"/>
<path opacity="0.1" d="M271.625 136.175C270.318 136.717 269.507 137.107 269.507 137.107C269.507 137.107 257.245 136.772 250.355 134.444C243.466 132.116 235.092 132.53 235.092 132.53C235.092 132.53 206.384 127.922 210.835 121.907C210.847 122.04 210.906 122.167 211.003 122.266C211.1 122.365 211.229 122.431 211.371 122.455C212.456 122.711 227.242 124.942 227.242 124.942C227.242 124.942 261.513 122.754 270.057 133.518C270.754 134.303 271.287 135.205 271.625 136.175V136.175Z" fill="black"/>
<path d="M283.548 100.666C283.548 100.666 285.235 111.765 285.352 112.667C285.47 113.569 286.078 124.436 285.352 125.673C284.627 126.911 283.548 128.922 283.548 128.922C283.548 128.922 284.751 131.275 279.94 132.177C275.129 133.079 269.481 135.76 269.481 135.76C269.481 135.76 257.212 135.425 250.362 133.073C243.512 130.72 235.093 131.165 235.093 131.165C235.093 131.165 198.651 125.332 214.287 118.213C229.922 111.094 240.982 120.736 240.982 120.736L258.415 119.731C258.415 119.731 264.912 116.025 266.717 116.366C267.99 116.518 269.284 116.323 270.442 115.806L270.567 104.03L283.548 100.666Z" fill="#FBBEBE"/>
<path opacity="0.1" d="M195.148 73.4213L191.657 73.2506L181.081 111.649C181.081 111.649 192.5 108.955 197.422 111.649C202.344 114.343 211.371 114.897 211.371 114.897L208.005 84.2885L195.148 73.4213Z" fill="black"/>
<path d="M195.148 72.7448L191.657 72.5741L181.081 110.972C181.081 110.972 192.5 108.278 197.422 110.972C202.344 113.666 211.371 114.221 211.371 114.221L208.005 83.6121L195.148 72.7448Z" fill="#78D2CF"/>
<path opacity="0.1" d="M275.136 81.1558L279.94 82.1675C279.94 82.1675 292.209 98.6239 293.17 99.5442C294.131 100.465 288.595 103.811 286.313 103.811C284.032 103.811 272.848 105.03 269.599 107.846C266.351 110.661 267.704 96.4907 267.704 96.1676C267.704 95.8446 271.737 86.9033 271.737 86.9033L275.136 81.1558Z" fill="black"/>
<path d="M275.136 80.4853L279.94 81.491C279.94 81.491 292.209 97.9778 293.17 98.8738C294.131 99.7697 288.595 103.14 286.313 103.14C284.032 103.14 272.848 104.359 269.599 107.175C266.351 109.991 267.704 95.8202 267.704 95.4972C267.704 95.1741 271.763 86.2024 271.763 86.2024L275.136 80.4853Z" fill="#78D2CF"/>
<g opacity="0.1">
<path opacity="0.1" d="M242.792 17.6831C242.764 17.2157 242.775 16.747 242.825 16.2812C241.83 17.6737 241.145 19.2387 240.812 20.8829V22.297C240.812 22.297 240.812 22.2665 240.812 22.2482V22.5834C240.812 23.5708 240.812 24.5643 240.779 25.5517H240.688V26.0088C240.688 25.8503 240.688 25.698 240.655 25.5395C239.348 25.3444 238.413 24.3205 237.439 23.5038C236.465 22.687 234.942 21.9069 233.752 22.5347C233.183 22.895 232.73 23.3948 232.445 23.9792L230.504 27.1729C230.495 26.8369 230.41 26.5064 230.253 26.2036C230.096 25.9009 229.872 25.6329 229.595 25.4176C227.824 26.1399 226.324 27.3368 225.285 28.8562C224.245 30.3756 223.714 32.1488 223.758 33.9505C221.972 32.9071 220.478 31.4824 219.399 29.7941C218.321 28.1058 217.688 26.2025 217.555 24.2413C217.441 26.4311 217.956 28.6096 219.047 30.5521C220.137 32.4945 221.763 34.1305 223.758 35.2914C223.716 33.49 224.248 31.7175 225.287 30.1984C226.326 28.6794 227.825 27.4821 229.595 26.7585C229.872 26.9755 230.095 27.2447 230.252 27.5483C230.409 27.852 230.494 28.1831 230.504 28.5199L232.425 25.3262C232.711 24.7418 233.163 24.242 233.733 23.8817C234.922 23.2722 236.406 23.9914 237.419 24.8508C238.433 25.7101 239.42 26.7767 240.779 26.9169C240.779 25.3566 240.797 23.8004 240.832 22.2482C241.152 20.6198 241.819 19.0676 242.792 17.6831V17.6831Z" fill="black"/>
<path opacity="0.1" d="M240.583 23.8207C240.616 23.4062 240.668 22.9918 240.733 22.6017L240.805 20.9195C240.609 21.875 240.534 22.8488 240.583 23.8207Z" fill="black"/>
<path opacity="0.1" d="M260.415 31.092C258.631 31.9819 256.356 31.2383 254.839 29.995C253.323 28.7516 252.297 27.0755 250.957 25.6614C250.858 25.9173 250.844 26.1952 250.917 26.4585C250.991 26.7217 251.148 26.9581 251.368 27.1364C251.238 27.1364 251.114 27.0755 250.989 27.045C252.297 28.4468 253.336 30.0925 254.839 31.3115C256.343 32.5305 258.631 33.2984 260.415 32.4086C262.2 31.5187 262.709 29.4342 262.553 27.4046C262.435 29.0015 261.82 30.385 260.415 31.092Z" fill="black"/>
<path opacity="0.1" d="M250.95 27.0328C248.764 26.4774 246.813 25.3122 245.357 23.6934C243.901 22.0746 243.011 20.0796 242.806 17.9758C242.433 22.7603 246.303 27.557 251.369 28.4774C251.153 28.3026 250.998 28.0719 250.923 27.8146C250.849 27.5573 250.858 27.2851 250.95 27.0328V27.0328Z" fill="black"/>
</g>
<path opacity="0.1" d="M101.277 354.22C136.453 354.22 164.97 349.95 164.97 344.682C164.97 339.414 136.453 335.143 101.277 335.143C66.1007 335.143 37.5847 339.414 37.5847 344.682C37.5847 349.95 66.1007 354.22 101.277 354.22Z" fill="#78D2CF"/>
<path d="M103.33 161.949H99.2312V247.992H103.33V161.949Z" fill="#535461"/>
<path d="M129.091 247.735L128.829 251.612L128.47 257.097L128.319 259.377L127.953 264.862L127.796 267.142L127.437 272.627L123.299 334.838C123.123 337.515 121.858 340.028 119.763 341.865C117.668 343.702 114.9 344.725 112.024 344.724H90.5379C87.654 344.726 84.8789 343.698 82.7821 341.851C80.6854 340.005 79.4259 337.48 79.2623 334.796L75.1246 272.585L74.7651 267.099L74.6148 264.82L74.2422 259.334L74.0919 257.055L73.7323 251.569L73.4709 247.693C73.4256 246.95 73.543 246.206 73.8159 245.507C74.0887 244.807 74.5114 244.167 75.058 243.625C75.6047 243.082 76.264 242.65 76.9957 242.352C77.7275 242.055 78.5165 241.9 79.3146 241.896H123.253C124.055 241.901 124.847 242.058 125.582 242.358C126.316 242.658 126.977 243.095 127.523 243.642C128.07 244.188 128.491 244.834 128.76 245.538C129.03 246.242 129.142 246.989 129.091 247.735V247.735Z" fill="#3F3D56"/>
<path d="M128.829 251.606L128.463 257.079H74.0918L73.7257 251.606H128.829Z" fill="#9D9CB5"/>
<path d="M128.312 259.358L127.953 264.832H74.6077L74.2417 259.358H128.312Z" fill="#9D9CB5"/>
<path d="M127.796 267.117L127.437 272.585H75.1243L74.7583 267.117H127.796Z" fill="#9D9CB5"/>
<path d="M67.4962 194.203C91.3678 210.306 101.31 235.491 101.31 235.491C101.31 235.491 72.549 234.57 48.6709 218.467C24.7927 202.365 14.8375 177.199 14.8375 177.199C14.8375 177.199 43.5985 178.101 67.4962 194.203Z" fill="#78D2CF"/>
<path d="M14.8375 177.199C14.8375 177.199 44.6901 192.649 54.2662 205.443C63.8423 218.236 101.284 235.503 101.284 235.503" stroke="#535461" stroke-width="2" stroke-miterlimit="10"/>
<path d="M54.2269 152.502C54.2269 152.502 70.4769 160.913 75.6931 167.873C80.9093 174.834 101.284 184.232 101.284 184.232" stroke="#535461" stroke-width="2" stroke-miterlimit="10"/>
<path d="M120.162 183.537C105.239 198.83 102.081 218.815 102.081 218.815C102.081 218.815 123.123 214 138.033 198.702C152.943 183.403 156.113 163.424 156.113 163.424C156.113 163.424 135.085 168.245 120.162 183.537Z" fill="#78D2CF"/>
<path d="M156.126 163.43C156.126 163.43 136.686 179.106 131.744 189.907C126.803 200.707 102.081 218.815 102.081 218.815" stroke="#535461" stroke-width="2" stroke-miterlimit="10"/>
<defs>
<linearGradient id="paint0_linear_198_2" x1="236.641" y1="352.107" x2="236.641" y2="0.0319962" gradientUnits="userSpaceOnUse">
<stop stop-color="#808080" stop-opacity="0.25"/>
<stop offset="0.54" stop-color="#808080" stop-opacity="0.12"/>
<stop offset="1" stop-color="#808080" stop-opacity="0.1"/>
</linearGradient>
</defs>
</svg>
